solid model
facet normal 0 0 1
outer loop 
vertex 0 0 0
vertex 0.5 0 0
vertex 0 6 0
endloop
endfacet
facet normal 0 0 1
outer loop 
vertex 0.5 6 0
vertex 0 6 0
vertex 0.5 0 0
endloop
endfacet
facet normal 0 0 -1
outer loop 
vertex 0.5 0 0
vertex 0 0 0
vertex 0 6 0
endloop
endfacet
facet normal 0 0 -1
outer loop 
vertex 0 6 0
vertex 0.5 6 0
vertex 0.5 0 0
endloop
endfacet
facet normal 0 0 -1
outer loop 
vertex 0 0 4
vertex 0 6 4
vertex 0.5 0 4
endloop
endfacet
facet normal 0 0 -1
outer loop 
vertex 0.5 6 4
vertex 0.5 0 4
vertex 0 6 4
endloop
endfacet
facet normal 0 0 1
outer loop 
vertex 0 6 4
vertex 0 0 4
vertex 0.5 0 4
endloop
endfacet
facet normal 0 0 1
outer loop 
vertex 0.5 0 4
vertex 0.5 6 4
vertex 0 6 4
endloop
endfacet
facet normal 1 0 0
outer loop 
vertex 0 0 0
vertex 0 6 0
vertex 0 0 4
endloop
endfacet
facet normal 1 0 0
outer loop 
vertex 0 6 4
vertex 0 0 4
vertex 0 6 0
endloop
endfacet
facet normal -1 0 0
outer loop 
vertex 0 6 0
vertex 0 0 0
vertex 0 0 4
endloop
endfacet
facet normal -1 0 0
outer loop 
vertex 0 0 4
vertex 0 6 4
vertex 0 6 0
endloop
endfacet
facet normal -1 0 0
outer loop 
vertex 0.5 0 0
vertex 0.5 0 4
vertex 0.5 6 0
endloop
endfacet
facet normal -1 0 0
outer loop 
vertex 0.5 6 4
vertex 0.5 6 0
vertex 0.5 0 4
endloop
endfacet
facet normal 1 0 0
outer loop 
vertex 0.5 0 4
vertex 0.5 0 0
vertex 0.5 6 0
endloop
endfacet
facet normal 1 0 0
outer loop 
vertex 0.5 6 0
vertex 0.5 6 4
vertex 0.5 0 4
endloop
endfacet
facet normal 0 1 0
outer loop 
vertex 0 0 0
vertex 0 0 4
vertex 0.5 0 0
endloop
endfacet
facet normal 0 1 0
outer loop 
vertex 0.5 0 4
vertex 0.5 0 0
vertex 0 0 4
endloop
endfacet
facet normal 0 -1 0
outer loop 
vertex 0 0 4
vertex 0 0 0
vertex 0.5 0 0
endloop
endfacet
facet normal 0 -1 0
outer loop 
vertex 0.5 0 0
vertex 0.5 0 4
vertex 0 0 4
endloop
endfacet
facet normal 0 -1 0
outer loop 
vertex 0 6 0
vertex 0.5 6 0
vertex 0 6 4
endloop
endfacet
facet normal 0 -1 0
outer loop 
vertex 0.5 6 4
vertex 0 6 4
vertex 0.5 6 0
endloop
endfacet
facet normal 0 1 0
outer loop 
vertex 0.5 6 0
vertex 0 6 0
vertex 0 6 4
endloop
endfacet
facet normal 0 1 0
outer loop 
vertex 0 6 4
vertex 0.5 6 4
vertex 0.5 6 0
endloop
endfacet
facet normal 0 0 1
outer loop 
vertex 0.5 0 0
vertex 6 0 0
vertex 0.5 0.5 0
endloop
endfacet
facet normal 0 0 1
outer loop 
vertex 6 0.5 0
vertex 0.5 0.5 0
vertex 6 0 0
endloop
endfacet
facet normal 0 0 -1
outer loop 
vertex 6 0 0
vertex 0.5 0 0
vertex 0.5 0.5 0
endloop
endfacet
facet normal 0 0 -1
outer loop 
vertex 0.5 0.5 0
vertex 6 0.5 0
vertex 6 0 0
endloop
endfacet
facet normal 0 0 -1
outer loop 
vertex 0.5 0 4
vertex 0.5 0.5 4
vertex 6 0 4
endloop
endfacet
facet normal 0 0 -1
outer loop 
vertex 6 0.5 4
vertex 6 0 4
vertex 0.5 0.5 4
endloop
endfacet
facet normal 0 0 1
outer loop 
vertex 0.5 0.5 4
vertex 0.5 0 4
vertex 6 0 4
endloop
endfacet
facet normal 0 0 1
outer loop 
vertex 6 0 4
vertex 6 0.5 4
vertex 0.5 0.5 4
endloop
endfacet
facet normal 1 0 0
outer loop 
vertex 0.5 0 0
vertex 0.5 0.5 0
vertex 0.5 0 4
endloop
endfacet
facet normal 1 0 0
outer loop 
vertex 0.5 0.5 4
vertex 0.5 0 4
vertex 0.5 0.5 0
endloop
endfacet
facet normal -1 0 0
outer loop 
vertex 0.5 0.5 0
vertex 0.5 0 0
vertex 0.5 0 4
endloop
endfacet
facet normal -1 0 0
outer loop 
vertex 0.5 0 4
vertex 0.5 0.5 4
vertex 0.5 0.5 0
endloop
endfacet
facet normal -1 0 0
outer loop 
vertex 6 0 0
vertex 6 0 4
vertex 6 0.5 0
endloop
endfacet
facet normal -1 0 0
outer loop 
vertex 6 0.5 4
vertex 6 0.5 0
vertex 6 0 4
endloop
endfacet
facet normal 1 0 0
outer loop 
vertex 6 0 4
vertex 6 0 0
vertex 6 0.5 0
endloop
endfacet
facet normal 1 0 0
outer loop 
vertex 6 0.5 0
vertex 6 0.5 4
vertex 6 0 4
endloop
endfacet
facet normal 0 1 0
outer loop 
vertex 0.5 0 0
vertex 0.5 0 4
vertex 6 0 0
endloop
endfacet
facet normal 0 1 0
outer loop 
vertex 6 0 4
vertex 6 0 0
vertex 0.5 0 4
endloop
endfacet
facet normal 0 -1 0
outer loop 
vertex 0.5 0 4
vertex 0.5 0 0
vertex 6 0 0
endloop
endfacet
facet normal 0 -1 0
outer loop 
vertex 6 0 0
vertex 6 0 4
vertex 0.5 0 4
endloop
endfacet
facet normal 0 -1 0
outer loop 
vertex 0.5 0.5 0
vertex 6 0.5 0
vertex 0.5 0.5 4
endloop
endfacet
facet normal 0 -1 0
outer loop 
vertex 6 0.5 4
vertex 0.5 0.5 4
vertex 6 0.5 0
endloop
endfacet
facet normal 0 1 0
outer loop 
vertex 6 0.5 0
vertex 0.5 0.5 0
vertex 0.5 0.5 4
endloop
endfacet
facet normal 0 1 0
outer loop 
vertex 0.5 0.5 4
vertex 6 0.5 4
vertex 6 0.5 0
endloop
endfacet
facet normal 0 0 1
outer loop 
vertex 5.5 0 0
vertex 6 0 0
vertex 5.5 6 0
endloop
endfacet
facet normal 0 0 1
outer loop 
vertex 6 6 0
vertex 5.5 6 0
vertex 6 0 0
endloop
endfacet
facet normal 0 0 -1
outer loop 
vertex 6 0 0
vertex 5.5 0 0
vertex 5.5 6 0
endloop
endfacet
facet normal 0 0 -1
outer loop 
vertex 5.5 6 0
vertex 6 6 0
vertex 6 0 0
endloop
endfacet
facet normal 0 0 -1
outer loop 
vertex 5.5 0 4
vertex 5.5 6 4
vertex 6 0 4
endloop
endfacet
facet normal 0 0 -1
outer loop 
vertex 6 6 4
vertex 6 0 4
vertex 5.5 6 4
endloop
endfacet
facet normal 0 0 1
outer loop 
vertex 5.5 6 4
vertex 5.5 0 4
vertex 6 0 4
endloop
endfacet
facet normal 0 0 1
outer loop 
vertex 6 0 4
vertex 6 6 4
vertex 5.5 6 4
endloop
endfacet
facet normal 1 0 0
outer loop 
vertex 5.5 0 0
vertex 5.5 6 0
vertex 5.5 0 4
endloop
endfacet
facet normal 1 0 0
outer loop 
vertex 5.5 6 4
vertex 5.5 0 4
vertex 5.5 6 0
endloop
endfacet
facet normal -1 0 0
outer loop 
vertex 5.5 6 0
vertex 5.5 0 0
vertex 5.5 0 4
endloop
endfacet
facet normal -1 0 0
outer loop 
vertex 5.5 0 4
vertex 5.5 6 4
vertex 5.5 6 0
endloop
endfacet
facet normal -1 0 0
outer loop 
vertex 6 0 0
vertex 6 0 4
vertex 6 6 0
endloop
endfacet
facet normal -1 0 0
outer loop 
vertex 6 6 4
vertex 6 6 0
vertex 6 0 4
endloop
endfacet
facet normal 1 0 0
outer loop 
vertex 6 0 4
vertex 6 0 0
vertex 6 6 0
endloop
endfacet
facet normal 1 0 0
outer loop 
vertex 6 6 0
vertex 6 6 4
vertex 6 0 4
endloop
endfacet
facet normal 0 1 0
outer loop 
vertex 5.5 0 0
vertex 5.5 0 4
vertex 6 0 0
endloop
endfacet
facet normal 0 1 0
outer loop 
vertex 6 0 4
vertex 6 0 0
vertex 5.5 0 4
endloop
endfacet
facet normal 0 -1 0
outer loop 
vertex 5.5 0 4
vertex 5.5 0 0
vertex 6 0 0
endloop
endfacet
facet normal 0 -1 0
outer loop 
vertex 6 0 0
vertex 6 0 4
vertex 5.5 0 4
endloop
endfacet
facet normal 0 -1 0
outer loop 
vertex 5.5 6 0
vertex 6 6 0
vertex 5.5 6 4
endloop
endfacet
facet normal 0 -1 0
outer loop 
vertex 6 6 4
vertex 5.5 6 4
vertex 6 6 0
endloop
endfacet
facet normal 0 1 0
outer loop 
vertex 6 6 0
vertex 5.5 6 0
vertex 5.5 6 4
endloop
endfacet
facet normal 0 1 0
outer loop 
vertex 5.5 6 4
vertex 6 6 4
vertex 6 6 0
endloop
endfacet
facet normal 0 0 1
outer loop 
vertex 0.5 5.5 0
vertex 6 5.5 0
vertex 0.5 6 0
endloop
endfacet
facet normal 0 0 1
outer loop 
vertex 6 6 0
vertex 0.5 6 0
vertex 6 5.5 0
endloop
endfacet
facet normal 0 0 -1
outer loop 
vertex 6 5.5 0
vertex 0.5 5.5 0
vertex 0.5 6 0
endloop
endfacet
facet normal 0 0 -1
outer loop 
vertex 0.5 6 0
vertex 6 6 0
vertex 6 5.5 0
endloop
endfacet
facet normal 0 0 -1
outer loop 
vertex 0.5 5.5 4
vertex 0.5 6 4
vertex 6 5.5 4
endloop
endfacet
facet normal 0 0 -1
outer loop 
vertex 6 6 4
vertex 6 5.5 4
vertex 0.5 6 4
endloop
endfacet
facet normal 0 0 1
outer loop 
vertex 0.5 6 4
vertex 0.5 5.5 4
vertex 6 5.5 4
endloop
endfacet
facet normal 0 0 1
outer loop 
vertex 6 5.5 4
vertex 6 6 4
vertex 0.5 6 4
endloop
endfacet
facet normal 1 0 0
outer loop 
vertex 0.5 5.5 0
vertex 0.5 6 0
vertex 0.5 5.5 4
endloop
endfacet
facet normal 1 0 0
outer loop 
vertex 0.5 6 4
vertex 0.5 5.5 4
vertex 0.5 6 0
endloop
endfacet
facet normal -1 0 0
outer loop 
vertex 0.5 6 0
vertex 0.5 5.5 0
vertex 0.5 5.5 4
endloop
endfacet
facet normal -1 0 0
outer loop 
vertex 0.5 5.5 4
vertex 0.5 6 4
vertex 0.5 6 0
endloop
endfacet
facet normal -1 0 0
outer loop 
vertex 6 5.5 0
vertex 6 5.5 4
vertex 6 6 0
endloop
endfacet
facet normal -1 0 0
outer loop 
vertex 6 6 4
vertex 6 6 0
vertex 6 5.5 4
endloop
endfacet
facet normal 1 0 0
outer loop 
vertex 6 5.5 4
vertex 6 5.5 0
vertex 6 6 0
endloop
endfacet
facet normal 1 0 0
outer loop 
vertex 6 6 0
vertex 6 6 4
vertex 6 5.5 4
endloop
endfacet
facet normal 0 1 0
outer loop 
vertex 0.5 5.5 0
vertex 0.5 5.5 4
vertex 6 5.5 0
endloop
endfacet
facet normal 0 1 0
outer loop 
vertex 6 5.5 4
vertex 6 5.5 0
vertex 0.5 5.5 4
endloop
endfacet
facet normal 0 -1 0
outer loop 
vertex 0.5 5.5 4
vertex 0.5 5.5 0
vertex 6 5.5 0
endloop
endfacet
facet normal 0 -1 0
outer loop 
vertex 6 5.5 0
vertex 6 5.5 4
vertex 0.5 5.5 4
endloop
endfacet
facet normal 0 -1 0
outer loop 
vertex 0.5 6 0
vertex 6 6 0
vertex 0.5 6 4
endloop
endfacet
facet normal 0 -1 0
outer loop 
vertex 6 6 4
vertex 0.5 6 4
vertex 6 6 0
endloop
endfacet
facet normal 0 1 0
outer loop 
vertex 6 6 0
vertex 0.5 6 0
vertex 0.5 6 4
endloop
endfacet
facet normal 0 1 0
outer loop 
vertex 0.5 6 4
vertex 6 6 4
vertex 6 6 0
endloop
endfacet
endsolid model
