solid model
facet normal 0 0 1
outer loop 
vertex 8 8 0
vertex 12 8 0
vertex 8 12 0
endloop
endfacet
facet normal 0 0 1
outer loop 
vertex 12 12 0
vertex 8 12 0
vertex 12 8 0
endloop
endfacet
facet normal 0 -0.928477 -0.371391
outer loop 
vertex 10 10 -5
vertex 12 8 0
vertex 8 8 0
endloop
endfacet
facet normal 0.928477 0 -0.371391
outer loop 
vertex 10 10 -5
vertex 12 12 0
vertex 12 8 0
endloop
endfacet
facet normal 0 0.928477 -0.371391
outer loop 
vertex 10 10 -5
vertex 8 12 0
vertex 12 12 0
endloop
endfacet
facet normal -0.928477 0 -0.371391
outer loop 
vertex 10 10 -5
vertex 8 8 0
vertex 8 12 0
endloop
endfacet
endsolid model
