solid model
facet normal 0.0298009 0.948262 -0.316087
outer loop 
vertex 5 -2 11
vertex 5.18837 -2.00592 11
vertex 5 -5 2
endloop
endfacet
facet normal 0.0298009 0.948262 -0.316087
outer loop 
vertex 5 -5 2
vertex 5 -5 2
vertex 5 -2 11
endloop
endfacet
facet normal 0.0892829 0.94452 -0.316087
outer loop 
vertex 5.18837 -2.00592 11
vertex 5.376 -2.02366 11
vertex 5 -5 2
endloop
endfacet
facet normal 0.0892829 0.94452 -0.316087
outer loop 
vertex 5 -5 2
vertex 5 -5 2
vertex 5.18837 -2.00592 11
endloop
endfacet
facet normal 0.148414 0.93705 -0.316087
outer loop 
vertex 5.376 -2.02366 11
vertex 5.56214 -2.05314 11
vertex 5 -5 2
endloop
endfacet
facet normal 0.148414 0.93705 -0.316087
outer loop 
vertex 5 -5 2
vertex 5 -5 2
vertex 5.376 -2.02366 11
endloop
endfacet
facet normal 0.206958 0.925882 -0.316087
outer loop 
vertex 5.56214 -2.05314 11
vertex 5.74607 -2.09425 11
vertex 5 -5 2
endloop
endfacet
facet normal 0.206958 0.925882 -0.316087
outer loop 
vertex 5 -5 2
vertex 5 -5 2
vertex 5.56214 -2.05314 11
endloop
endfacet
facet normal 0.264687 0.91106 -0.316087
outer loop 
vertex 5.74607 -2.09425 11
vertex 5.92705 -2.14683 11
vertex 5 -5 2
endloop
endfacet
facet normal 0.264687 0.91106 -0.316087
outer loop 
vertex 5 -5 2
vertex 5 -5 2
vertex 5.74607 -2.09425 11
endloop
endfacet
facet normal 0.321371 0.892642 -0.316087
outer loop 
vertex 5.92705 -2.14683 11
vertex 6.10437 -2.21067 11
vertex 5 -5 2
endloop
endfacet
facet normal 0.321371 0.892642 -0.316087
outer loop 
vertex 5 -5 2
vertex 5 -5 2
vertex 5.92705 -2.14683 11
endloop
endfacet
facet normal 0.376787 0.870701 -0.316087
outer loop 
vertex 6.10437 -2.21067 11
vertex 6.27734 -2.28552 11
vertex 5 -5 2
endloop
endfacet
facet normal 0.376787 0.870701 -0.316087
outer loop 
vertex 5 -5 2
vertex 5 -5 2
vertex 6.10437 -2.21067 11
endloop
endfacet
facet normal 0.430714 0.845325 -0.316087
outer loop 
vertex 6.27734 -2.28552 11
vertex 6.44526 -2.37108 11
vertex 5 -5 2
endloop
endfacet
facet normal 0.430714 0.845325 -0.316087
outer loop 
vertex 5 -5 2
vertex 5 -5 2
vertex 6.27734 -2.28552 11
endloop
endfacet
facet normal 0.482943 0.816612 -0.316087
outer loop 
vertex 6.44526 -2.37108 11
vertex 6.60748 -2.46702 11
vertex 5 -5 2
endloop
endfacet
facet normal 0.482943 0.816612 -0.316087
outer loop 
vertex 5 -5 2
vertex 5 -5 2
vertex 6.44526 -2.37108 11
endloop
endfacet
facet normal 0.533266 0.784676 -0.316087
outer loop 
vertex 6.60748 -2.46702 11
vertex 6.76336 -2.57295 11
vertex 5 -5 2
endloop
endfacet
facet normal 0.533266 0.784676 -0.316087
outer loop 
vertex 5 -5 2
vertex 5 -5 2
vertex 6.60748 -2.46702 11
endloop
endfacet
facet normal 0.581484 0.749644 -0.316087
outer loop 
vertex 6.76336 -2.57295 11
vertex 6.91227 -2.68846 11
vertex 5 -5 2
endloop
endfacet
facet normal 0.581484 0.749644 -0.316087
outer loop 
vertex 5 -5 2
vertex 5 -5 2
vertex 6.76336 -2.57295 11
endloop
endfacet
facet normal 0.627406 0.711653 -0.316087
outer loop 
vertex 6.91227 -2.68846 11
vertex 7.05364 -2.81309 11
vertex 5 -5 2
endloop
endfacet
facet normal 0.627406 0.711653 -0.316087
outer loop 
vertex 5 -5 2
vertex 5 -5 2
vertex 6.91227 -2.68846 11
endloop
endfacet
facet normal 0.670853 0.670853 -0.316087
outer loop 
vertex 7.05364 -2.81309 11
vertex 7.18691 -2.94636 11
vertex 5 -5 2
endloop
endfacet
facet normal 0.670853 0.670853 -0.316087
outer loop 
vertex 5 -5 2
vertex 5 -5 2
vertex 7.05364 -2.81309 11
endloop
endfacet
facet normal 0.711653 0.627406 -0.316087
outer loop 
vertex 7.18691 -2.94636 11
vertex 7.31154 -3.08773 11
vertex 5 -5 2
endloop
endfacet
facet normal 0.711653 0.627406 -0.316087
outer loop 
vertex 5 -5 2
vertex 5 -5 2
vertex 7.18691 -2.94636 11
endloop
endfacet
facet normal 0.749644 0.581484 -0.316087
outer loop 
vertex 7.31154 -3.08773 11
vertex 7.42705 -3.23664 11
vertex 5 -5 2
endloop
endfacet
facet normal 0.749644 0.581484 -0.316087
outer loop 
vertex 5 -5 2
vertex 5 -5 2
vertex 7.31154 -3.08773 11
endloop
endfacet
facet normal 0.784677 0.533265 -0.316087
outer loop 
vertex 7.42705 -3.23664 11
vertex 7.53298 -3.39252 11
vertex 5 -5 2
endloop
endfacet
facet normal 0.784677 0.533265 -0.316087
outer loop 
vertex 5 -5 2
vertex 5 -5 2
vertex 7.42705 -3.23664 11
endloop
endfacet
facet normal 0.816612 0.482943 -0.316087
outer loop 
vertex 7.53298 -3.39252 11
vertex 7.62892 -3.55474 11
vertex 5 -5 2
endloop
endfacet
facet normal 0.816612 0.482943 -0.316087
outer loop 
vertex 5 -5 2
vertex 5 -5 2
vertex 7.53298 -3.39252 11
endloop
endfacet
facet normal 0.845324 0.430715 -0.316087
outer loop 
vertex 7.62892 -3.55474 11
vertex 7.71448 -3.72266 11
vertex 5 -5 2
endloop
endfacet
facet normal 0.845324 0.430715 -0.316087
outer loop 
vertex 5 -5 2
vertex 5 -5 2
vertex 7.62892 -3.55474 11
endloop
endfacet
facet normal 0.870702 0.376785 -0.316087
outer loop 
vertex 7.71448 -3.72266 11
vertex 7.78933 -3.89563 11
vertex 5 -5 2
endloop
endfacet
facet normal 0.870702 0.376785 -0.316087
outer loop 
vertex 5 -5 2
vertex 5 -5 2
vertex 7.71448 -3.72266 11
endloop
endfacet
facet normal 0.892642 0.32137 -0.316087
outer loop 
vertex 7.78933 -3.89563 11
vertex 7.85317 -4.07295 11
vertex 5 -5 2
endloop
endfacet
facet normal 0.892642 0.32137 -0.316087
outer loop 
vertex 5 -5 2
vertex 5 -5 2
vertex 7.78933 -3.89563 11
endloop
endfacet
facet normal 0.91106 0.264687 -0.316087
outer loop 
vertex 7.85317 -4.07295 11
vertex 7.90575 -4.25393 11
vertex 5 -5 2
endloop
endfacet
facet normal 0.91106 0.264687 -0.316087
outer loop 
vertex 5 -5 2
vertex 5 -5 2
vertex 7.85317 -4.07295 11
endloop
endfacet
facet normal 0.925881 0.20696 -0.316087
outer loop 
vertex 7.90575 -4.25393 11
vertex 7.94686 -4.43786 11
vertex 5 -5 2
endloop
endfacet
facet normal 0.925881 0.20696 -0.316087
outer loop 
vertex 5 -5 2
vertex 5 -5 2
vertex 7.90575 -4.25393 11
endloop
endfacet
facet normal 0.93705 0.148414 -0.316087
outer loop 
vertex 7.94686 -4.43786 11
vertex 7.97634 -4.624 11
vertex 5 -5 2
endloop
endfacet
facet normal 0.93705 0.148414 -0.316087
outer loop 
vertex 5 -5 2
vertex 5 -5 2
vertex 7.94686 -4.43786 11
endloop
endfacet
facet normal 0.94452 0.0892829 -0.316087
outer loop 
vertex 7.97634 -4.624 11
vertex 7.99408 -4.81163 11
vertex 5 -5 2
endloop
endfacet
facet normal 0.94452 0.0892829 -0.316087
outer loop 
vertex 5 -5 2
vertex 5 -5 2
vertex 7.97634 -4.624 11
endloop
endfacet
facet normal 0.948262 0.0298009 -0.316087
outer loop 
vertex 7.99408 -4.81163 11
vertex 8 -5 11
vertex 5 -5 2
endloop
endfacet
facet normal 0.948262 0.0298009 -0.316087
outer loop 
vertex 5 -5 2
vertex 5 -5 2
vertex 7.99408 -4.81163 11
endloop
endfacet
facet normal 0.948262 -0.029801 -0.316087
outer loop 
vertex 8 -5 11
vertex 7.99408 -5.18837 11
vertex 5 -5 2
endloop
endfacet
facet normal 0.948262 -0.029801 -0.316087
outer loop 
vertex 5 -5 2
vertex 5 -5 2
vertex 8 -5 11
endloop
endfacet
facet normal 0.94452 -0.0892827 -0.316087
outer loop 
vertex 7.99408 -5.18837 11
vertex 7.97634 -5.376 11
vertex 5 -5 2
endloop
endfacet
facet normal 0.94452 -0.0892827 -0.316087
outer loop 
vertex 5 -5 2
vertex 5 -5 2
vertex 7.99408 -5.18837 11
endloop
endfacet
facet normal 0.93705 -0.148414 -0.316087
outer loop 
vertex 7.97634 -5.376 11
vertex 7.94686 -5.56214 11
vertex 5 -5 2
endloop
endfacet
facet normal 0.93705 -0.148414 -0.316087
outer loop 
vertex 5 -5 2
vertex 5 -5 2
vertex 7.97634 -5.376 11
endloop
endfacet
facet normal 0.925882 -0.206959 -0.316087
outer loop 
vertex 7.94686 -5.56214 11
vertex 7.90575 -5.74607 11
vertex 5 -5 2
endloop
endfacet
facet normal 0.925882 -0.206959 -0.316087
outer loop 
vertex 5 -5 2
vertex 5 -5 2
vertex 7.94686 -5.56214 11
endloop
endfacet
facet normal 0.91106 -0.264687 -0.316087
outer loop 
vertex 7.90575 -5.74607 11
vertex 7.85317 -5.92705 11
vertex 5 -5 2
endloop
endfacet
facet normal 0.91106 -0.264687 -0.316087
outer loop 
vertex 5 -5 2
vertex 5 -5 2
vertex 7.90575 -5.74607 11
endloop
endfacet
facet normal 0.892642 -0.321371 -0.316087
outer loop 
vertex 7.85317 -5.92705 11
vertex 7.78933 -6.10437 11
vertex 5 -5 2
endloop
endfacet
facet normal 0.892642 -0.321371 -0.316087
outer loop 
vertex 5 -5 2
vertex 5 -5 2
vertex 7.85317 -5.92705 11
endloop
endfacet
facet normal 0.870701 -0.376787 -0.316087
outer loop 
vertex 7.78933 -6.10437 11
vertex 7.71448 -6.27734 11
vertex 5 -5 2
endloop
endfacet
facet normal 0.870701 -0.376787 -0.316087
outer loop 
vertex 5 -5 2
vertex 5 -5 2
vertex 7.78933 -6.10437 11
endloop
endfacet
facet normal 0.845325 -0.430714 -0.316087
outer loop 
vertex 7.71448 -6.27734 11
vertex 7.62892 -6.44526 11
vertex 5 -5 2
endloop
endfacet
facet normal 0.845325 -0.430714 -0.316087
outer loop 
vertex 5 -5 2
vertex 5 -5 2
vertex 7.71448 -6.27734 11
endloop
endfacet
facet normal 0.816611 -0.482944 -0.316087
outer loop 
vertex 7.62892 -6.44526 11
vertex 7.53298 -6.60748 11
vertex 5 -5 2
endloop
endfacet
facet normal 0.816611 -0.482944 -0.316087
outer loop 
vertex 5 -5 2
vertex 5 -5 2
vertex 7.62892 -6.44526 11
endloop
endfacet
facet normal 0.784676 -0.533266 -0.316087
outer loop 
vertex 7.53298 -6.60748 11
vertex 7.42705 -6.76336 11
vertex 5 -5 2
endloop
endfacet
facet normal 0.784676 -0.533266 -0.316087
outer loop 
vertex 5 -5 2
vertex 5 -5 2
vertex 7.53298 -6.60748 11
endloop
endfacet
facet normal 0.749644 -0.581483 -0.316087
outer loop 
vertex 7.42705 -6.76336 11
vertex 7.31154 -6.91227 11
vertex 5 -5 2
endloop
endfacet
facet normal 0.749644 -0.581483 -0.316087
outer loop 
vertex 5 -5 2
vertex 5 -5 2
vertex 7.42705 -6.76336 11
endloop
endfacet
facet normal 0.711653 -0.627406 -0.316087
outer loop 
vertex 7.31154 -6.91227 11
vertex 7.18691 -7.05364 11
vertex 5 -5 2
endloop
endfacet
facet normal 0.711653 -0.627406 -0.316087
outer loop 
vertex 5 -5 2
vertex 5 -5 2
vertex 7.31154 -6.91227 11
endloop
endfacet
facet normal 0.670853 -0.670853 -0.316087
outer loop 
vertex 7.18691 -7.05364 11
vertex 7.05364 -7.18691 11
vertex 5 -5 2
endloop
endfacet
facet normal 0.670853 -0.670853 -0.316087
outer loop 
vertex 5 -5 2
vertex 5 -5 2
vertex 7.18691 -7.05364 11
endloop
endfacet
facet normal 0.627405 -0.711654 -0.316087
outer loop 
vertex 7.05364 -7.18691 11
vertex 6.91227 -7.31154 11
vertex 5 -5 2
endloop
endfacet
facet normal 0.627405 -0.711654 -0.316087
outer loop 
vertex 5 -5 2
vertex 5 -5 2
vertex 7.05364 -7.18691 11
endloop
endfacet
facet normal 0.581484 -0.749644 -0.316087
outer loop 
vertex 6.91227 -7.31154 11
vertex 6.76336 -7.42705 11
vertex 5 -5 2
endloop
endfacet
facet normal 0.581484 -0.749644 -0.316087
outer loop 
vertex 5 -5 2
vertex 5 -5 2
vertex 6.91227 -7.31154 11
endloop
endfacet
facet normal 0.533266 -0.784676 -0.316087
outer loop 
vertex 6.76336 -7.42705 11
vertex 6.60748 -7.53298 11
vertex 5 -5 2
endloop
endfacet
facet normal 0.533266 -0.784676 -0.316087
outer loop 
vertex 5 -5 2
vertex 5 -5 2
vertex 6.76336 -7.42705 11
endloop
endfacet
facet normal 0.482944 -0.816611 -0.316087
outer loop 
vertex 6.60748 -7.53298 11
vertex 6.44526 -7.62892 11
vertex 5 -5 2
endloop
endfacet
facet normal 0.482944 -0.816611 -0.316087
outer loop 
vertex 5 -5 2
vertex 5 -5 2
vertex 6.60748 -7.53298 11
endloop
endfacet
facet normal 0.430714 -0.845325 -0.316087
outer loop 
vertex 6.44526 -7.62892 11
vertex 6.27734 -7.71448 11
vertex 5 -5 2
endloop
endfacet
facet normal 0.430714 -0.845325 -0.316087
outer loop 
vertex 5 -5 2
vertex 5 -5 2
vertex 6.44526 -7.62892 11
endloop
endfacet
facet normal 0.376788 -0.870701 -0.316087
outer loop 
vertex 6.27734 -7.71448 11
vertex 6.10437 -7.78933 11
vertex 5 -5 2
endloop
endfacet
facet normal 0.376788 -0.870701 -0.316087
outer loop 
vertex 5 -5 2
vertex 5 -5 2
vertex 6.27734 -7.71448 11
endloop
endfacet
facet normal 0.32137 -0.892642 -0.316087
outer loop 
vertex 6.10437 -7.78933 11
vertex 5.92705 -7.85317 11
vertex 5 -5 2
endloop
endfacet
facet normal 0.32137 -0.892642 -0.316087
outer loop 
vertex 5 -5 2
vertex 5 -5 2
vertex 6.10437 -7.78933 11
endloop
endfacet
facet normal 0.264687 -0.91106 -0.316087
outer loop 
vertex 5.92705 -7.85317 11
vertex 5.74607 -7.90575 11
vertex 5 -5 2
endloop
endfacet
facet normal 0.264687 -0.91106 -0.316087
outer loop 
vertex 5 -5 2
vertex 5 -5 2
vertex 5.92705 -7.85317 11
endloop
endfacet
facet normal 0.206959 -0.925882 -0.316087
outer loop 
vertex 5.74607 -7.90575 11
vertex 5.56214 -7.94686 11
vertex 5 -5 2
endloop
endfacet
facet normal 0.206959 -0.925882 -0.316087
outer loop 
vertex 5 -5 2
vertex 5 -5 2
vertex 5.74607 -7.90575 11
endloop
endfacet
facet normal 0.148414 -0.93705 -0.316087
outer loop 
vertex 5.56214 -7.94686 11
vertex 5.376 -7.97634 11
vertex 5 -5 2
endloop
endfacet
facet normal 0.148414 -0.93705 -0.316087
outer loop 
vertex 5 -5 2
vertex 5 -5 2
vertex 5.56214 -7.94686 11
endloop
endfacet
facet normal 0.0892827 -0.94452 -0.316087
outer loop 
vertex 5.376 -7.97634 11
vertex 5.18837 -7.99408 11
vertex 5 -5 2
endloop
endfacet
facet normal 0.0892827 -0.94452 -0.316087
outer loop 
vertex 5 -5 2
vertex 5 -5 2
vertex 5.376 -7.97634 11
endloop
endfacet
facet normal 0.0298009 -0.948262 -0.316087
outer loop 
vertex 5.18837 -7.99408 11
vertex 5 -8 11
vertex 5 -5 2
endloop
endfacet
facet normal 0.0298009 -0.948262 -0.316087
outer loop 
vertex 5 -5 2
vertex 5 -5 2
vertex 5.18837 -7.99408 11
endloop
endfacet
facet normal -0.029801 -0.948262 -0.316087
outer loop 
vertex 5 -8 11
vertex 4.81163 -7.99408 11
vertex 5 -5 2
endloop
endfacet
facet normal -0.029801 -0.948262 -0.316087
outer loop 
vertex 5 -5 2
vertex 5 -5 2
vertex 5 -8 11
endloop
endfacet
facet normal -0.0892829 -0.94452 -0.316087
outer loop 
vertex 4.81163 -7.99408 11
vertex 4.624 -7.97634 11
vertex 5 -5 2
endloop
endfacet
facet normal -0.0892829 -0.94452 -0.316087
outer loop 
vertex 5 -5 2
vertex 5 -5 2
vertex 4.81163 -7.99408 11
endloop
endfacet
facet normal -0.148414 -0.93705 -0.316087
outer loop 
vertex 4.624 -7.97634 11
vertex 4.43786 -7.94686 11
vertex 5 -5 2
endloop
endfacet
facet normal -0.148414 -0.93705 -0.316087
outer loop 
vertex 5 -5 2
vertex 5 -5 2
vertex 4.624 -7.97634 11
endloop
endfacet
facet normal -0.20696 -0.925881 -0.316087
outer loop 
vertex 4.43786 -7.94686 11
vertex 4.25393 -7.90575 11
vertex 5 -5 2
endloop
endfacet
facet normal -0.20696 -0.925881 -0.316087
outer loop 
vertex 5 -5 2
vertex 5 -5 2
vertex 4.43786 -7.94686 11
endloop
endfacet
facet normal -0.264687 -0.91106 -0.316087
outer loop 
vertex 4.25393 -7.90575 11
vertex 4.07295 -7.85317 11
vertex 5 -5 2
endloop
endfacet
facet normal -0.264687 -0.91106 -0.316087
outer loop 
vertex 5 -5 2
vertex 5 -5 2
vertex 4.25393 -7.90575 11
endloop
endfacet
facet normal -0.32137 -0.892642 -0.316087
outer loop 
vertex 4.07295 -7.85317 11
vertex 3.89563 -7.78933 11
vertex 5 -5 2
endloop
endfacet
facet normal -0.32137 -0.892642 -0.316087
outer loop 
vertex 5 -5 2
vertex 5 -5 2
vertex 4.07295 -7.85317 11
endloop
endfacet
facet normal -0.376785 -0.870702 -0.316087
outer loop 
vertex 3.89563 -7.78933 11
vertex 3.72266 -7.71448 11
vertex 5 -5 2
endloop
endfacet
facet normal -0.376785 -0.870702 -0.316087
outer loop 
vertex 5 -5 2
vertex 5 -5 2
vertex 3.89563 -7.78933 11
endloop
endfacet
facet normal -0.430715 -0.845324 -0.316087
outer loop 
vertex 3.72266 -7.71448 11
vertex 3.55474 -7.62892 11
vertex 5 -5 2
endloop
endfacet
facet normal -0.430715 -0.845324 -0.316087
outer loop 
vertex 5 -5 2
vertex 5 -5 2
vertex 3.72266 -7.71448 11
endloop
endfacet
facet normal -0.482943 -0.816612 -0.316087
outer loop 
vertex 3.55474 -7.62892 11
vertex 3.39252 -7.53298 11
vertex 5 -5 2
endloop
endfacet
facet normal -0.482943 -0.816612 -0.316087
outer loop 
vertex 5 -5 2
vertex 5 -5 2
vertex 3.55474 -7.62892 11
endloop
endfacet
facet normal -0.533266 -0.784676 -0.316087
outer loop 
vertex 3.39252 -7.53298 11
vertex 3.23664 -7.42705 11
vertex 5 -5 2
endloop
endfacet
facet normal -0.533266 -0.784676 -0.316087
outer loop 
vertex 5 -5 2
vertex 5 -5 2
vertex 3.39252 -7.53298 11
endloop
endfacet
facet normal -0.581484 -0.749643 -0.316087
outer loop 
vertex 3.23664 -7.42705 11
vertex 3.08773 -7.31154 11
vertex 5 -5 2
endloop
endfacet
facet normal -0.581484 -0.749643 -0.316087
outer loop 
vertex 5 -5 2
vertex 5 -5 2
vertex 3.23664 -7.42705 11
endloop
endfacet
facet normal -0.627406 -0.711654 -0.316087
outer loop 
vertex 3.08773 -7.31154 11
vertex 2.94636 -7.18691 11
vertex 5 -5 2
endloop
endfacet
facet normal -0.627406 -0.711654 -0.316087
outer loop 
vertex 5 -5 2
vertex 5 -5 2
vertex 3.08773 -7.31154 11
endloop
endfacet
facet normal -0.670854 -0.670853 -0.316087
outer loop 
vertex 2.94636 -7.18691 11
vertex 2.81309 -7.05364 11
vertex 5 -5 2
endloop
endfacet
facet normal -0.670854 -0.670853 -0.316087
outer loop 
vertex 5 -5 2
vertex 5 -5 2
vertex 2.94636 -7.18691 11
endloop
endfacet
facet normal -0.711652 -0.627407 -0.316087
outer loop 
vertex 2.81309 -7.05364 11
vertex 2.68846 -6.91227 11
vertex 5 -5 2
endloop
endfacet
facet normal -0.711652 -0.627407 -0.316087
outer loop 
vertex 5 -5 2
vertex 5 -5 2
vertex 2.81309 -7.05364 11
endloop
endfacet
facet normal -0.749644 -0.581483 -0.316087
outer loop 
vertex 2.68846 -6.91227 11
vertex 2.57295 -6.76336 11
vertex 5 -5 2
endloop
endfacet
facet normal -0.749644 -0.581483 -0.316087
outer loop 
vertex 5 -5 2
vertex 5 -5 2
vertex 2.68846 -6.91227 11
endloop
endfacet
facet normal -0.784676 -0.533265 -0.316087
outer loop 
vertex 2.57295 -6.76336 11
vertex 2.46702 -6.60748 11
vertex 5 -5 2
endloop
endfacet
facet normal -0.784676 -0.533265 -0.316087
outer loop 
vertex 5 -5 2
vertex 5 -5 2
vertex 2.57295 -6.76336 11
endloop
endfacet
facet normal -0.816611 -0.482944 -0.316087
outer loop 
vertex 2.46702 -6.60748 11
vertex 2.37108 -6.44526 11
vertex 5 -5 2
endloop
endfacet
facet normal -0.816611 -0.482944 -0.316087
outer loop 
vertex 5 -5 2
vertex 5 -5 2
vertex 2.46702 -6.60748 11
endloop
endfacet
facet normal -0.845325 -0.430714 -0.316087
outer loop 
vertex 2.37108 -6.44526 11
vertex 2.28552 -6.27734 11
vertex 5 -5 2
endloop
endfacet
facet normal -0.845325 -0.430714 -0.316087
outer loop 
vertex 5 -5 2
vertex 5 -5 2
vertex 2.37108 -6.44526 11
endloop
endfacet
facet normal -0.870701 -0.376787 -0.316087
outer loop 
vertex 2.28552 -6.27734 11
vertex 2.21067 -6.10437 11
vertex 5 -5 2
endloop
endfacet
facet normal -0.870701 -0.376787 -0.316087
outer loop 
vertex 5 -5 2
vertex 5 -5 2
vertex 2.28552 -6.27734 11
endloop
endfacet
facet normal -0.892642 -0.321372 -0.316087
outer loop 
vertex 2.21067 -6.10437 11
vertex 2.14683 -5.92705 11
vertex 5 -5 2
endloop
endfacet
facet normal -0.892642 -0.321372 -0.316087
outer loop 
vertex 5 -5 2
vertex 5 -5 2
vertex 2.21067 -6.10437 11
endloop
endfacet
facet normal -0.911059 -0.264688 -0.316087
outer loop 
vertex 2.14683 -5.92705 11
vertex 2.09425 -5.74607 11
vertex 5 -5 2
endloop
endfacet
facet normal -0.911059 -0.264688 -0.316087
outer loop 
vertex 5 -5 2
vertex 5 -5 2
vertex 2.14683 -5.92705 11
endloop
endfacet
facet normal -0.925882 -0.206959 -0.316087
outer loop 
vertex 2.09425 -5.74607 11
vertex 2.05314 -5.56214 11
vertex 5 -5 2
endloop
endfacet
facet normal -0.925882 -0.206959 -0.316087
outer loop 
vertex 5 -5 2
vertex 5 -5 2
vertex 2.09425 -5.74607 11
endloop
endfacet
facet normal -0.93705 -0.148414 -0.316087
outer loop 
vertex 2.05314 -5.56214 11
vertex 2.02366 -5.376 11
vertex 5 -5 2
endloop
endfacet
facet normal -0.93705 -0.148414 -0.316087
outer loop 
vertex 5 -5 2
vertex 5 -5 2
vertex 2.05314 -5.56214 11
endloop
endfacet
facet normal -0.94452 -0.0892827 -0.316087
outer loop 
vertex 2.02366 -5.376 11
vertex 2.00592 -5.18837 11
vertex 5 -5 2
endloop
endfacet
facet normal -0.94452 -0.0892827 -0.316087
outer loop 
vertex 5 -5 2
vertex 5 -5 2
vertex 2.02366 -5.376 11
endloop
endfacet
facet normal -0.948262 -0.0298009 -0.316087
outer loop 
vertex 2.00592 -5.18837 11
vertex 2 -5 11
vertex 5 -5 2
endloop
endfacet
facet normal -0.948262 -0.0298009 -0.316087
outer loop 
vertex 5 -5 2
vertex 5 -5 2
vertex 2.00592 -5.18837 11
endloop
endfacet
facet normal -0.948262 0.0298009 -0.316087
outer loop 
vertex 2 -5 11
vertex 2.00592 -4.81163 11
vertex 5 -5 2
endloop
endfacet
facet normal -0.948262 0.0298009 -0.316087
outer loop 
vertex 5 -5 2
vertex 5 -5 2
vertex 2 -5 11
endloop
endfacet
facet normal -0.94452 0.0892827 -0.316087
outer loop 
vertex 2.00592 -4.81163 11
vertex 2.02366 -4.624 11
vertex 5 -5 2
endloop
endfacet
facet normal -0.94452 0.0892827 -0.316087
outer loop 
vertex 5 -5 2
vertex 5 -5 2
vertex 2.00592 -4.81163 11
endloop
endfacet
facet normal -0.93705 0.148414 -0.316087
outer loop 
vertex 2.02366 -4.624 11
vertex 2.05314 -4.43786 11
vertex 5 -5 2
endloop
endfacet
facet normal -0.93705 0.148414 -0.316087
outer loop 
vertex 5 -5 2
vertex 5 -5 2
vertex 2.02366 -4.624 11
endloop
endfacet
facet normal -0.925881 0.20696 -0.316087
outer loop 
vertex 2.05314 -4.43786 11
vertex 2.09425 -4.25393 11
vertex 5 -5 2
endloop
endfacet
facet normal -0.925881 0.20696 -0.316087
outer loop 
vertex 5 -5 2
vertex 5 -5 2
vertex 2.05314 -4.43786 11
endloop
endfacet
facet normal -0.91106 0.264687 -0.316087
outer loop 
vertex 2.09425 -4.25393 11
vertex 2.14683 -4.07295 11
vertex 5 -5 2
endloop
endfacet
facet normal -0.91106 0.264687 -0.316087
outer loop 
vertex 5 -5 2
vertex 5 -5 2
vertex 2.09425 -4.25393 11
endloop
endfacet
facet normal -0.892642 0.321372 -0.316087
outer loop 
vertex 2.14683 -4.07295 11
vertex 2.21067 -3.89563 11
vertex 5 -5 2
endloop
endfacet
facet normal -0.892642 0.321372 -0.316087
outer loop 
vertex 5 -5 2
vertex 5 -5 2
vertex 2.14683 -4.07295 11
endloop
endfacet
facet normal -0.870701 0.376786 -0.316087
outer loop 
vertex 2.21067 -3.89563 11
vertex 2.28552 -3.72266 11
vertex 5 -5 2
endloop
endfacet
facet normal -0.870701 0.376786 -0.316087
outer loop 
vertex 5 -5 2
vertex 5 -5 2
vertex 2.21067 -3.89563 11
endloop
endfacet
facet normal -0.845325 0.430714 -0.316087
outer loop 
vertex 2.28552 -3.72266 11
vertex 2.37108 -3.55474 11
vertex 5 -5 2
endloop
endfacet
facet normal -0.845325 0.430714 -0.316087
outer loop 
vertex 5 -5 2
vertex 5 -5 2
vertex 2.28552 -3.72266 11
endloop
endfacet
facet normal -0.816612 0.482943 -0.316087
outer loop 
vertex 2.37108 -3.55474 11
vertex 2.46702 -3.39252 11
vertex 5 -5 2
endloop
endfacet
facet normal -0.816612 0.482943 -0.316087
outer loop 
vertex 5 -5 2
vertex 5 -5 2
vertex 2.37108 -3.55474 11
endloop
endfacet
facet normal -0.784676 0.533266 -0.316087
outer loop 
vertex 2.46702 -3.39252 11
vertex 2.57295 -3.23664 11
vertex 5 -5 2
endloop
endfacet
facet normal -0.784676 0.533266 -0.316087
outer loop 
vertex 5 -5 2
vertex 5 -5 2
vertex 2.46702 -3.39252 11
endloop
endfacet
facet normal -0.749644 0.581483 -0.316087
outer loop 
vertex 2.57295 -3.23664 11
vertex 2.68846 -3.08773 11
vertex 5 -5 2
endloop
endfacet
facet normal -0.749644 0.581483 -0.316087
outer loop 
vertex 5 -5 2
vertex 5 -5 2
vertex 2.57295 -3.23664 11
endloop
endfacet
facet normal -0.711654 0.627406 -0.316087
outer loop 
vertex 2.68846 -3.08773 11
vertex 2.81309 -2.94636 11
vertex 5 -5 2
endloop
endfacet
facet normal -0.711654 0.627406 -0.316087
outer loop 
vertex 5 -5 2
vertex 5 -5 2
vertex 2.68846 -3.08773 11
endloop
endfacet
facet normal -0.670853 0.670854 -0.316087
outer loop 
vertex 2.81309 -2.94636 11
vertex 2.94636 -2.81309 11
vertex 5 -5 2
endloop
endfacet
facet normal -0.670853 0.670854 -0.316087
outer loop 
vertex 5 -5 2
vertex 5 -5 2
vertex 2.81309 -2.94636 11
endloop
endfacet
facet normal -0.627407 0.711652 -0.316087
outer loop 
vertex 2.94636 -2.81309 11
vertex 3.08773 -2.68846 11
vertex 5 -5 2
endloop
endfacet
facet normal -0.627407 0.711652 -0.316087
outer loop 
vertex 5 -5 2
vertex 5 -5 2
vertex 2.94636 -2.81309 11
endloop
endfacet
facet normal -0.581483 0.749644 -0.316087
outer loop 
vertex 3.08773 -2.68846 11
vertex 3.23664 -2.57295 11
vertex 5 -5 2
endloop
endfacet
facet normal -0.581483 0.749644 -0.316087
outer loop 
vertex 5 -5 2
vertex 5 -5 2
vertex 3.08773 -2.68846 11
endloop
endfacet
facet normal -0.533265 0.784677 -0.316087
outer loop 
vertex 3.23664 -2.57295 11
vertex 3.39252 -2.46702 11
vertex 5 -5 2
endloop
endfacet
facet normal -0.533265 0.784677 -0.316087
outer loop 
vertex 5 -5 2
vertex 5 -5 2
vertex 3.23664 -2.57295 11
endloop
endfacet
facet normal -0.482944 0.816611 -0.316087
outer loop 
vertex 3.39252 -2.46702 11
vertex 3.55474 -2.37108 11
vertex 5 -5 2
endloop
endfacet
facet normal -0.482944 0.816611 -0.316087
outer loop 
vertex 5 -5 2
vertex 5 -5 2
vertex 3.39252 -2.46702 11
endloop
endfacet
facet normal -0.430714 0.845325 -0.316087
outer loop 
vertex 3.55474 -2.37108 11
vertex 3.72266 -2.28552 11
vertex 5 -5 2
endloop
endfacet
facet normal -0.430714 0.845325 -0.316087
outer loop 
vertex 5 -5 2
vertex 5 -5 2
vertex 3.55474 -2.37108 11
endloop
endfacet
facet normal -0.376787 0.870701 -0.316087
outer loop 
vertex 3.72266 -2.28552 11
vertex 3.89563 -2.21067 11
vertex 5 -5 2
endloop
endfacet
facet normal -0.376787 0.870701 -0.316087
outer loop 
vertex 5 -5 2
vertex 5 -5 2
vertex 3.72266 -2.28552 11
endloop
endfacet
facet normal -0.32137 0.892642 -0.316087
outer loop 
vertex 3.89563 -2.21067 11
vertex 4.07295 -2.14683 11
vertex 5 -5 2
endloop
endfacet
facet normal -0.32137 0.892642 -0.316087
outer loop 
vertex 5 -5 2
vertex 5 -5 2
vertex 3.89563 -2.21067 11
endloop
endfacet
facet normal -0.264687 0.91106 -0.316087
outer loop 
vertex 4.07295 -2.14683 11
vertex 4.25393 -2.09425 11
vertex 5 -5 2
endloop
endfacet
facet normal -0.264687 0.91106 -0.316087
outer loop 
vertex 5 -5 2
vertex 5 -5 2
vertex 4.07295 -2.14683 11
endloop
endfacet
facet normal -0.206959 0.925882 -0.316087
outer loop 
vertex 4.25393 -2.09425 11
vertex 4.43786 -2.05314 11
vertex 5 -5 2
endloop
endfacet
facet normal -0.206959 0.925882 -0.316087
outer loop 
vertex 5 -5 2
vertex 5 -5 2
vertex 4.25393 -2.09425 11
endloop
endfacet
facet normal -0.148414 0.93705 -0.316087
outer loop 
vertex 4.43786 -2.05314 11
vertex 4.624 -2.02366 11
vertex 5 -5 2
endloop
endfacet
facet normal -0.148414 0.93705 -0.316087
outer loop 
vertex 5 -5 2
vertex 5 -5 2
vertex 4.43786 -2.05314 11
endloop
endfacet
facet normal -0.0892827 0.94452 -0.316087
outer loop 
vertex 4.624 -2.02366 11
vertex 4.81163 -2.00592 11
vertex 5 -5 2
endloop
endfacet
facet normal -0.0892827 0.94452 -0.316087
outer loop 
vertex 5 -5 2
vertex 5 -5 2
vertex 4.624 -2.02366 11
endloop
endfacet
facet normal -0.0298009 0.948262 -0.316087
outer loop 
vertex 4.81163 -2.00592 11
vertex 5 -2 11
vertex 5 -5 2
endloop
endfacet
facet normal -0.0298009 0.948262 -0.316087
outer loop 
vertex 5 -5 2
vertex 5 -5 2
vertex 4.81163 -2.00592 11
endloop
endfacet
endsolid model
