solid model
facet normal 0 0 -1
outer loop 
vertex 4 0 0
vertex 0 0 0
vertex 1.83697e-16 3 0
endloop
endfacet
facet normal 0 0 -1
outer loop 
vertex 1.83697e-16 3 0
vertex 4 3 0
vertex 4 0 0
endloop
endfacet
facet normal 0 0 1
outer loop 
vertex 1.83697e-16 3 0.333333
vertex 0 0 0.333333
vertex 4 0 0.333333
endloop
endfacet
facet normal 0 0 1
outer loop 
vertex 4 0 0.333333
vertex 4 3 0.333333
vertex 1.83697e-16 3 0.333333
endloop
endfacet
facet normal 0 -1 0
outer loop 
vertex 0 0 0.333333
vertex 0 0 0
vertex 4 0 0
endloop
endfacet
facet normal 0 -1 0
outer loop 
vertex 4 0 0
vertex 4 0 0.333333
vertex 0 0 0.333333
endloop
endfacet
facet normal 1 0 0
outer loop 
vertex 4 0 0.333333
vertex 4 0 0
vertex 4 3 0
endloop
endfacet
facet normal 1 0 0
outer loop 
vertex 4 3 0
vertex 4 3 0.333333
vertex 4 0 0.333333
endloop
endfacet
facet normal 0 1 0
outer loop 
vertex 4 3 0.333333
vertex 4 3 0
vertex 1.83697e-16 3 0
endloop
endfacet
facet normal 0 1 0
outer loop 
vertex 1.83697e-16 3 0
vertex 1.83697e-16 3 0.333333
vertex 4 3 0.333333
endloop
endfacet
facet normal -1 6.12323e-17 0
outer loop 
vertex 1.83697e-16 3 0
vertex 0 0 0
vertex 0 0 0.333333
endloop
endfacet
facet normal -1 6.12323e-17 0
outer loop 
vertex 0 0 0.333333
vertex 1.83697e-16 3 0.333333
vertex 1.83697e-16 3 0
endloop
endfacet
facet normal -0 0 -1
outer loop 
vertex 3.94457 0.663585 0.333333
vertex 0 0 0.333333
vertex -0.497688 2.95843 0.333333
endloop
endfacet
facet normal -0 0 -1
outer loop 
vertex -0.497688 2.95843 0.333333
vertex 3.44688 3.62201 0.333333
vertex 3.94457 0.663585 0.333333
endloop
endfacet
facet normal 0 0 1
outer loop 
vertex -0.497688 2.95843 0.666667
vertex 0 0 0.666667
vertex 3.94457 0.663585 0.666667
endloop
endfacet
facet normal 0 0 1
outer loop 
vertex 3.94457 0.663585 0.666667
vertex 3.44688 3.62201 0.666667
vertex -0.497688 2.95843 0.666667
endloop
endfacet
facet normal 0.165896 -0.986143 0
outer loop 
vertex 0 0 0.666667
vertex 0 0 0.333333
vertex 3.94457 0.663585 0.333333
endloop
endfacet
facet normal 0.165896 -0.986143 0
outer loop 
vertex 3.94457 0.663585 0.333333
vertex 3.94457 0.663585 0.666667
vertex 0 0 0.666667
endloop
endfacet
facet normal 0.986143 0.165896 0
outer loop 
vertex 3.94457 0.663585 0.666667
vertex 3.94457 0.663585 0.333333
vertex 3.44688 3.62201 0.333333
endloop
endfacet
facet normal 0.986143 0.165896 0
outer loop 
vertex 3.44688 3.62201 0.333333
vertex 3.44688 3.62201 0.666667
vertex 3.94457 0.663585 0.666667
endloop
endfacet
facet normal -0.165896 0.986143 0
outer loop 
vertex 3.44688 3.62201 0.666667
vertex 3.44688 3.62201 0.333333
vertex -0.497688 2.95843 0.333333
endloop
endfacet
facet normal -0.165896 0.986143 0
outer loop 
vertex -0.497688 2.95843 0.333333
vertex -0.497688 2.95843 0.666667
vertex 3.44688 3.62201 0.666667
endloop
endfacet
facet normal -0.986143 -0.165896 0
outer loop 
vertex -0.497688 2.95843 0.333333
vertex 0 0 0.333333
vertex 0 0 0.666667
endloop
endfacet
facet normal -0.986143 -0.165896 0
outer loop 
vertex 0 0 0.666667
vertex -0.497688 2.95843 0.666667
vertex -0.497688 2.95843 0.333333
endloop
endfacet
facet normal -0 0 -1
outer loop 
vertex 3.77983 1.30878 0.666667
vertex 0 0 0.666667
vertex -0.981584 2.83487 0.666667
endloop
endfacet
facet normal -0 0 -1
outer loop 
vertex -0.981584 2.83487 0.666667
vertex 2.79824 4.14365 0.666667
vertex 3.77983 1.30878 0.666667
endloop
endfacet
facet normal 0 0 1
outer loop 
vertex -0.981584 2.83487 1
vertex 0 0 1
vertex 3.77983 1.30878 1
endloop
endfacet
facet normal 0 0 1
outer loop 
vertex 3.77983 1.30878 1
vertex 2.79824 4.14365 1
vertex -0.981584 2.83487 1
endloop
endfacet
facet normal 0.327195 -0.944957 0
outer loop 
vertex 0 0 1
vertex 0 0 0.666667
vertex 3.77983 1.30878 0.666667
endloop
endfacet
facet normal 0.327195 -0.944957 0
outer loop 
vertex 3.77983 1.30878 0.666667
vertex 3.77983 1.30878 1
vertex 0 0 1
endloop
endfacet
facet normal 0.944957 0.327195 0
outer loop 
vertex 3.77983 1.30878 1
vertex 3.77983 1.30878 0.666667
vertex 2.79824 4.14365 0.666667
endloop
endfacet
facet normal 0.944957 0.327195 0
outer loop 
vertex 2.79824 4.14365 0.666667
vertex 2.79824 4.14365 1
vertex 3.77983 1.30878 1
endloop
endfacet
facet normal -0.327195 0.944957 0
outer loop 
vertex 2.79824 4.14365 1
vertex 2.79824 4.14365 0.666667
vertex -0.981584 2.83487 0.666667
endloop
endfacet
facet normal -0.327195 0.944957 0
outer loop 
vertex -0.981584 2.83487 0.666667
vertex -0.981584 2.83487 1
vertex 2.79824 4.14365 1
endloop
endfacet
facet normal -0.944957 -0.327195 0
outer loop 
vertex -0.981584 2.83487 0.666667
vertex 0 0 0.666667
vertex 0 0 1
endloop
endfacet
facet normal -0.944957 -0.327195 0
outer loop 
vertex 0 0 1
vertex -0.981584 2.83487 1
vertex -0.981584 2.83487 0.666667
endloop
endfacet
facet normal -0 0 -1
outer loop 
vertex 3.51033 1.9177 1
vertex 0 0 1
vertex -1.43828 2.63275 1
endloop
endfacet
facet normal -0 0 -1
outer loop 
vertex -1.43828 2.63275 1
vertex 2.07205 4.55045 1
vertex 3.51033 1.9177 1
endloop
endfacet
facet normal 0 0 1
outer loop 
vertex -1.43828 2.63275 1.33333
vertex 0 0 1.33333
vertex 3.51033 1.9177 1.33333
endloop
endfacet
facet normal 0 0 1
outer loop 
vertex 3.51033 1.9177 1.33333
vertex 2.07205 4.55045 1.33333
vertex -1.43828 2.63275 1.33333
endloop
endfacet
facet normal 0.479426 -0.877583 0
outer loop 
vertex 0 0 1.33333
vertex 0 0 1
vertex 3.51033 1.9177 1
endloop
endfacet
facet normal 0.479426 -0.877583 0
outer loop 
vertex 3.51033 1.9177 1
vertex 3.51033 1.9177 1.33333
vertex 0 0 1.33333
endloop
endfacet
facet normal 0.877583 0.479425 0
outer loop 
vertex 3.51033 1.9177 1.33333
vertex 3.51033 1.9177 1
vertex 2.07205 4.55045 1
endloop
endfacet
facet normal 0.877583 0.479425 0
outer loop 
vertex 2.07205 4.55045 1
vertex 2.07205 4.55045 1.33333
vertex 3.51033 1.9177 1.33333
endloop
endfacet
facet normal -0.479425 0.877583 0
outer loop 
vertex 2.07205 4.55045 1.33333
vertex 2.07205 4.55045 1
vertex -1.43828 2.63275 1
endloop
endfacet
facet normal -0.479425 0.877583 0
outer loop 
vertex -1.43828 2.63275 1
vertex -1.43828 2.63275 1.33333
vertex 2.07205 4.55045 1.33333
endloop
endfacet
facet normal -0.877583 -0.479426 0
outer loop 
vertex -1.43828 2.63275 1
vertex 0 0 1
vertex 0 0 1.33333
endloop
endfacet
facet normal -0.877583 -0.479426 0
outer loop 
vertex 0 0 1.33333
vertex -1.43828 2.63275 1.33333
vertex -1.43828 2.63275 1
endloop
endfacet
facet normal 0 0 -1
outer loop 
vertex 3.14355 2.47348 1.33333
vertex 0 0 1.33333
vertex -1.85511 2.35766 1.33333
endloop
endfacet
facet normal 0 0 -1
outer loop 
vertex -1.85511 2.35766 1.33333
vertex 1.28844 4.83114 1.33333
vertex 3.14355 2.47348 1.33333
endloop
endfacet
facet normal -0 0 1
outer loop 
vertex -1.85511 2.35766 1.66667
vertex 0 0 1.66667
vertex 3.14355 2.47348 1.66667
endloop
endfacet
facet normal -0 0 1
outer loop 
vertex 3.14355 2.47348 1.66667
vertex 1.28844 4.83114 1.66667
vertex -1.85511 2.35766 1.66667
endloop
endfacet
facet normal 0.61837 -0.785887 0
outer loop 
vertex 0 0 1.66667
vertex 0 0 1.33333
vertex 3.14355 2.47348 1.33333
endloop
endfacet
facet normal 0.61837 -0.785887 0
outer loop 
vertex 3.14355 2.47348 1.33333
vertex 3.14355 2.47348 1.66667
vertex 0 0 1.66667
endloop
endfacet
facet normal 0.785887 0.61837 0
outer loop 
vertex 3.14355 2.47348 1.66667
vertex 3.14355 2.47348 1.33333
vertex 1.28844 4.83114 1.33333
endloop
endfacet
facet normal 0.785887 0.61837 0
outer loop 
vertex 1.28844 4.83114 1.33333
vertex 1.28844 4.83114 1.66667
vertex 3.14355 2.47348 1.66667
endloop
endfacet
facet normal -0.61837 0.785887 0
outer loop 
vertex 1.28844 4.83114 1.66667
vertex 1.28844 4.83114 1.33333
vertex -1.85511 2.35766 1.33333
endloop
endfacet
facet normal -0.61837 0.785887 0
outer loop 
vertex -1.85511 2.35766 1.33333
vertex -1.85511 2.35766 1.66667
vertex 1.28844 4.83114 1.66667
endloop
endfacet
facet normal -0.785887 -0.61837 0
outer loop 
vertex -1.85511 2.35766 1.33333
vertex 0 0 1.33333
vertex 0 0 1.66667
endloop
endfacet
facet normal -0.785887 -0.61837 0
outer loop 
vertex 0 0 1.66667
vertex -1.85511 2.35766 1.66667
vertex -1.85511 2.35766 1.33333
endloop
endfacet
facet normal 0 0 -1
outer loop 
vertex 2.68965 2.96071 1.66667
vertex 0 0 1.66667
vertex -2.22053 2.01724 1.66667
endloop
endfacet
facet normal 0 0 -1
outer loop 
vertex -2.22053 2.01724 1.66667
vertex 0.469118 4.97794 1.66667
vertex 2.68965 2.96071 1.66667
endloop
endfacet
facet normal -0 0 1
outer loop 
vertex -2.22053 2.01724 2
vertex 0 0 2
vertex 2.68965 2.96071 2
endloop
endfacet
facet normal -0 0 1
outer loop 
vertex 2.68965 2.96071 2
vertex 0.469118 4.97794 2
vertex -2.22053 2.01724 2
endloop
endfacet
facet normal 0.740177 -0.672412 0
outer loop 
vertex 0 0 2
vertex 0 0 1.66667
vertex 2.68965 2.96071 1.66667
endloop
endfacet
facet normal 0.740177 -0.672412 0
outer loop 
vertex 2.68965 2.96071 1.66667
vertex 2.68965 2.96071 2
vertex 0 0 2
endloop
endfacet
facet normal 0.672412 0.740177 0
outer loop 
vertex 2.68965 2.96071 2
vertex 2.68965 2.96071 1.66667
vertex 0.469118 4.97794 1.66667
endloop
endfacet
facet normal 0.672412 0.740177 0
outer loop 
vertex 0.469118 4.97794 1.66667
vertex 0.469118 4.97794 2
vertex 2.68965 2.96071 2
endloop
endfacet
facet normal -0.740177 0.672412 0
outer loop 
vertex 0.469118 4.97794 2
vertex 0.469118 4.97794 1.66667
vertex -2.22053 2.01724 1.66667
endloop
endfacet
facet normal -0.740177 0.672412 0
outer loop 
vertex -2.22053 2.01724 1.66667
vertex -2.22053 2.01724 2
vertex 0.469118 4.97794 2
endloop
endfacet
facet normal -0.672412 -0.740177 0
outer loop 
vertex -2.22053 2.01724 1.66667
vertex 0 0 1.66667
vertex 0 0 2
endloop
endfacet
facet normal -0.672412 -0.740177 0
outer loop 
vertex 0 0 2
vertex -2.22053 2.01724 2
vertex -2.22053 2.01724 1.66667
endloop
endfacet
facet normal 0 0 -1
outer loop 
vertex 2.16121 3.36588 2
vertex 0 0 2
vertex -2.52441 1.62091 2
endloop
endfacet
facet normal 0 0 -1
outer loop 
vertex -2.52441 1.62091 2
vertex -0.363203 4.98679 2
vertex 2.16121 3.36588 2
endloop
endfacet
facet normal -0 0 1
outer loop 
vertex -2.52441 1.62091 2.33333
vertex 0 0 2.33333
vertex 2.16121 3.36588 2.33333
endloop
endfacet
facet normal -0 0 1
outer loop 
vertex 2.16121 3.36588 2.33333
vertex -0.363203 4.98679 2.33333
vertex -2.52441 1.62091 2.33333
endloop
endfacet
facet normal 0.841471 -0.540302 0
outer loop 
vertex 0 0 2.33333
vertex 0 0 2
vertex 2.16121 3.36588 2
endloop
endfacet
facet normal 0.841471 -0.540302 0
outer loop 
vertex 2.16121 3.36588 2
vertex 2.16121 3.36588 2.33333
vertex 0 0 2.33333
endloop
endfacet
facet normal 0.540302 0.841471 0
outer loop 
vertex 2.16121 3.36588 2.33333
vertex 2.16121 3.36588 2
vertex -0.363203 4.98679 2
endloop
endfacet
facet normal 0.540302 0.841471 0
outer loop 
vertex -0.363203 4.98679 2
vertex -0.363203 4.98679 2.33333
vertex 2.16121 3.36588 2.33333
endloop
endfacet
facet normal -0.841471 0.540302 0
outer loop 
vertex -0.363203 4.98679 2.33333
vertex -0.363203 4.98679 2
vertex -2.52441 1.62091 2
endloop
endfacet
facet normal -0.841471 0.540302 0
outer loop 
vertex -2.52441 1.62091 2
vertex -2.52441 1.62091 2.33333
vertex -0.363203 4.98679 2.33333
endloop
endfacet
facet normal -0.540302 -0.841471 0
outer loop 
vertex -2.52441 1.62091 2
vertex 0 0 2
vertex 0 0 2.33333
endloop
endfacet
facet normal -0.540302 -0.841471 0
outer loop 
vertex 0 0 2.33333
vertex -2.52441 1.62091 2.33333
vertex -2.52441 1.62091 2
endloop
endfacet
facet normal 0 0 -1
outer loop 
vertex 1.57287 3.67778 2.33333
vertex 0 0 2.33333
vertex -2.75834 1.17966 2.33333
endloop
endfacet
facet normal 0 0 -1
outer loop 
vertex -2.75834 1.17966 2.33333
vertex -1.18546 4.85744 2.33333
vertex 1.57287 3.67778 2.33333
endloop
endfacet
facet normal -0 0 1
outer loop 
vertex -2.75834 1.17966 2.66667
vertex 0 0 2.66667
vertex 1.57287 3.67778 2.66667
endloop
endfacet
facet normal -0 0 1
outer loop 
vertex 1.57287 3.67778 2.66667
vertex -1.18546 4.85744 2.66667
vertex -2.75834 1.17966 2.66667
endloop
endfacet
facet normal 0.919445 -0.393219 0
outer loop 
vertex 0 0 2.66667
vertex 0 0 2.33333
vertex 1.57287 3.67778 2.33333
endloop
endfacet
facet normal 0.919445 -0.393219 0
outer loop 
vertex 1.57287 3.67778 2.33333
vertex 1.57287 3.67778 2.66667
vertex 0 0 2.66667
endloop
endfacet
facet normal 0.393219 0.919445 0
outer loop 
vertex 1.57287 3.67778 2.66667
vertex 1.57287 3.67778 2.33333
vertex -1.18546 4.85744 2.33333
endloop
endfacet
facet normal 0.393219 0.919445 0
outer loop 
vertex -1.18546 4.85744 2.33333
vertex -1.18546 4.85744 2.66667
vertex 1.57287 3.67778 2.66667
endloop
endfacet
facet normal -0.919445 0.393219 0
outer loop 
vertex -1.18546 4.85744 2.66667
vertex -1.18546 4.85744 2.33333
vertex -2.75834 1.17966 2.33333
endloop
endfacet
facet normal -0.919445 0.393219 0
outer loop 
vertex -2.75834 1.17966 2.33333
vertex -2.75834 1.17966 2.66667
vertex -1.18546 4.85744 2.66667
endloop
endfacet
facet normal -0.393219 -0.919445 0
outer loop 
vertex -2.75834 1.17966 2.33333
vertex 0 0 2.33333
vertex 0 0 2.66667
endloop
endfacet
facet normal -0.393219 -0.919445 0
outer loop 
vertex 0 0 2.66667
vertex -2.75834 1.17966 2.66667
vertex -2.75834 1.17966 2.33333
endloop
endfacet
facet normal 0 0 -1
outer loop 
vertex 0.94095 3.88775 2.66667
vertex 0 0 2.66667
vertex -2.91581 0.705713 2.66667
endloop
endfacet
facet normal 0 0 -1
outer loop 
vertex -2.91581 0.705713 2.66667
vertex -1.97486 4.59346 2.66667
vertex 0.94095 3.88775 2.66667
endloop
endfacet
facet normal -0 0 1
outer loop 
vertex -2.91581 0.705713 3
vertex 0 0 3
vertex 0.94095 3.88775 3
endloop
endfacet
facet normal -0 0 1
outer loop 
vertex 0.94095 3.88775 3
vertex -1.97486 4.59346 3
vertex -2.91581 0.705713 3
endloop
endfacet
facet normal 0.971938 -0.235238 0
outer loop 
vertex 0 0 3
vertex 0 0 2.66667
vertex 0.94095 3.88775 2.66667
endloop
endfacet
facet normal 0.971938 -0.235238 0
outer loop 
vertex 0.94095 3.88775 2.66667
vertex 0.94095 3.88775 3
vertex 0 0 3
endloop
endfacet
facet normal 0.235238 0.971938 0
outer loop 
vertex 0.94095 3.88775 3
vertex 0.94095 3.88775 2.66667
vertex -1.97486 4.59346 2.66667
endloop
endfacet
facet normal 0.235238 0.971938 0
outer loop 
vertex -1.97486 4.59346 2.66667
vertex -1.97486 4.59346 3
vertex 0.94095 3.88775 3
endloop
endfacet
facet normal -0.971938 0.235237 0
outer loop 
vertex -1.97486 4.59346 3
vertex -1.97486 4.59346 2.66667
vertex -2.91581 0.705713 2.66667
endloop
endfacet
facet normal -0.971938 0.235237 0
outer loop 
vertex -2.91581 0.705713 2.66667
vertex -2.91581 0.705713 3
vertex -1.97486 4.59346 3
endloop
endfacet
facet normal -0.235238 -0.971938 0
outer loop 
vertex -2.91581 0.705713 2.66667
vertex 0 0 2.66667
vertex 0 0 3
endloop
endfacet
facet normal -0.235238 -0.971938 0
outer loop 
vertex 0 0 3
vertex -2.91581 0.705713 3
vertex -2.91581 0.705713 2.66667
endloop
endfacet
facet normal 0 0 -1
outer loop 
vertex 0.282949 3.98998 3
vertex 0 0 3
vertex -2.99249 0.212212 3
endloop
endfacet
facet normal 0 0 -1
outer loop 
vertex -2.99249 0.212212 3
vertex -2.70954 4.20219 3
vertex 0.282949 3.98998 3
endloop
endfacet
facet normal -0 0 1
outer loop 
vertex -2.99249 0.212212 3.33333
vertex 0 0 3.33333
vertex 0.282949 3.98998 3.33333
endloop
endfacet
facet normal -0 0 1
outer loop 
vertex 0.282949 3.98998 3.33333
vertex -2.70954 4.20219 3.33333
vertex -2.99249 0.212212 3.33333
endloop
endfacet
facet normal 0.997495 -0.0707372 0
outer loop 
vertex 0 0 3.33333
vertex 0 0 3
vertex 0.282949 3.98998 3
endloop
endfacet
facet normal 0.997495 -0.0707372 0
outer loop 
vertex 0.282949 3.98998 3
vertex 0.282949 3.98998 3.33333
vertex 0 0 3.33333
endloop
endfacet
facet normal 0.0707373 0.997495 0
outer loop 
vertex 0.282949 3.98998 3.33333
vertex 0.282949 3.98998 3
vertex -2.70954 4.20219 3
endloop
endfacet
facet normal 0.0707373 0.997495 0
outer loop 
vertex -2.70954 4.20219 3
vertex -2.70954 4.20219 3.33333
vertex 0.282949 3.98998 3.33333
endloop
endfacet
facet normal -0.997495 0.0707373 0
outer loop 
vertex -2.70954 4.20219 3.33333
vertex -2.70954 4.20219 3
vertex -2.99249 0.212212 3
endloop
endfacet
facet normal -0.997495 0.0707373 0
outer loop 
vertex -2.99249 0.212212 3
vertex -2.99249 0.212212 3.33333
vertex -2.70954 4.20219 3.33333
endloop
endfacet
facet normal -0.0707372 -0.997495 0
outer loop 
vertex -2.99249 0.212212 3
vertex 0 0 3
vertex 0 0 3.33333
endloop
endfacet
facet normal -0.0707372 -0.997495 0
outer loop 
vertex 0 0 3.33333
vertex -2.99249 0.212212 3.33333
vertex -2.99249 0.212212 3
endloop
endfacet
facet normal 0 -0 -1
outer loop 
vertex -0.382895 3.98163 3.33333
vertex 0 0 3.33333
vertex -2.98622 -0.287171 3.33333
endloop
endfacet
facet normal 0 -0 -1
outer loop 
vertex -2.98622 -0.287171 3.33333
vertex -3.36912 3.69446 3.33333
vertex -0.382895 3.98163 3.33333
endloop
endfacet
facet normal 0 0 1
outer loop 
vertex -2.98622 -0.287171 3.66667
vertex 0 0 3.66667
vertex -0.382895 3.98163 3.66667
endloop
endfacet
facet normal 0 0 1
outer loop 
vertex -0.382895 3.98163 3.66667
vertex -3.36912 3.69446 3.66667
vertex -2.98622 -0.287171 3.66667
endloop
endfacet
facet normal 0.995408 0.0957236 0
outer loop 
vertex 0 0 3.66667
vertex 0 0 3.33333
vertex -0.382895 3.98163 3.33333
endloop
endfacet
facet normal 0.995408 0.0957236 0
outer loop 
vertex -0.382895 3.98163 3.33333
vertex -0.382895 3.98163 3.66667
vertex 0 0 3.66667
endloop
endfacet
facet normal -0.0957236 0.995408 0
outer loop 
vertex -0.382895 3.98163 3.66667
vertex -0.382895 3.98163 3.33333
vertex -3.36912 3.69446 3.33333
endloop
endfacet
facet normal -0.0957236 0.995408 0
outer loop 
vertex -3.36912 3.69446 3.33333
vertex -3.36912 3.69446 3.66667
vertex -0.382895 3.98163 3.66667
endloop
endfacet
facet normal -0.995408 -0.0957236 -0
outer loop 
vertex -3.36912 3.69446 3.66667
vertex -3.36912 3.69446 3.33333
vertex -2.98622 -0.287171 3.33333
endloop
endfacet
facet normal -0.995408 -0.0957236 -0
outer loop 
vertex -2.98622 -0.287171 3.33333
vertex -2.98622 -0.287171 3.66667
vertex -3.36912 3.69446 3.66667
endloop
endfacet
facet normal 0.0957236 -0.995408 0
outer loop 
vertex -2.98622 -0.287171 3.33333
vertex 0 0 3.33333
vertex 0 0 3.66667
endloop
endfacet
facet normal 0.0957236 -0.995408 0
outer loop 
vertex 0 0 3.66667
vertex -2.98622 -0.287171 3.66667
vertex -2.98622 -0.287171 3.33333
endloop
endfacet
facet normal 0 -0 -1
outer loop 
vertex -1.03813 3.86294 3.66667
vertex 0 0 3.66667
vertex -2.8972 -0.778594 3.66667
endloop
endfacet
facet normal 0 -0 -1
outer loop 
vertex -2.8972 -0.778594 3.66667
vertex -3.93533 3.08434 3.66667
vertex -1.03813 3.86294 3.66667
endloop
endfacet
facet normal 0 0 1
outer loop 
vertex -2.8972 -0.778594 4
vertex 0 0 4
vertex -1.03813 3.86294 4
endloop
endfacet
facet normal 0 0 1
outer loop 
vertex -1.03813 3.86294 4
vertex -3.93533 3.08434 4
vertex -2.8972 -0.778594 4
endloop
endfacet
facet normal 0.965735 0.259531 0
outer loop 
vertex 0 0 4
vertex 0 0 3.66667
vertex -1.03813 3.86294 3.66667
endloop
endfacet
facet normal 0.965735 0.259531 0
outer loop 
vertex -1.03813 3.86294 3.66667
vertex -1.03813 3.86294 4
vertex 0 0 4
endloop
endfacet
facet normal -0.259532 0.965735 0
outer loop 
vertex -1.03813 3.86294 4
vertex -1.03813 3.86294 3.66667
vertex -3.93533 3.08434 3.66667
endloop
endfacet
facet normal -0.259532 0.965735 0
outer loop 
vertex -3.93533 3.08434 3.66667
vertex -3.93533 3.08434 4
vertex -1.03813 3.86294 4
endloop
endfacet
facet normal -0.965735 -0.259532 -0
outer loop 
vertex -3.93533 3.08434 4
vertex -3.93533 3.08434 3.66667
vertex -2.8972 -0.778594 3.66667
endloop
endfacet
facet normal -0.965735 -0.259532 -0
outer loop 
vertex -2.8972 -0.778594 3.66667
vertex -2.8972 -0.778594 4
vertex -3.93533 3.08434 4
endloop
endfacet
facet normal 0.259531 -0.965735 0
outer loop 
vertex -2.8972 -0.778594 3.66667
vertex 0 0 3.66667
vertex 0 0 4
endloop
endfacet
facet normal 0.259531 -0.965735 0
outer loop 
vertex 0 0 4
vertex -2.8972 -0.778594 4
vertex -2.8972 -0.778594 3.66667
endloop
endfacet
facet normal 0 -0 -1
outer loop 
vertex -1.66459 3.63719 4
vertex 0 0 4
vertex -2.72789 -1.24844 4
endloop
endfacet
facet normal 0 -0 -1
outer loop 
vertex -2.72789 -1.24844 4
vertex -4.39248 2.38875 4
vertex -1.66459 3.63719 4
endloop
endfacet
facet normal 0 0 1
outer loop 
vertex -2.72789 -1.24844 4.33333
vertex 0 0 4.33333
vertex -1.66459 3.63719 4.33333
endloop
endfacet
facet normal 0 0 1
outer loop 
vertex -1.66459 3.63719 4.33333
vertex -4.39248 2.38875 4.33333
vertex -2.72789 -1.24844 4.33333
endloop
endfacet
facet normal 0.909297 0.416147 0
outer loop 
vertex 0 0 4.33333
vertex 0 0 4
vertex -1.66459 3.63719 4
endloop
endfacet
facet normal 0.909297 0.416147 0
outer loop 
vertex -1.66459 3.63719 4
vertex -1.66459 3.63719 4.33333
vertex 0 0 4.33333
endloop
endfacet
facet normal -0.416147 0.909297 0
outer loop 
vertex -1.66459 3.63719 4.33333
vertex -1.66459 3.63719 4
vertex -4.39248 2.38875 4
endloop
endfacet
facet normal -0.416147 0.909297 0
outer loop 
vertex -4.39248 2.38875 4
vertex -4.39248 2.38875 4.33333
vertex -1.66459 3.63719 4.33333
endloop
endfacet
facet normal -0.909297 -0.416147 -0
outer loop 
vertex -4.39248 2.38875 4.33333
vertex -4.39248 2.38875 4
vertex -2.72789 -1.24844 4
endloop
endfacet
facet normal -0.909297 -0.416147 -0
outer loop 
vertex -2.72789 -1.24844 4
vertex -2.72789 -1.24844 4.33333
vertex -4.39248 2.38875 4.33333
endloop
endfacet
facet normal 0.416147 -0.909297 0
outer loop 
vertex -2.72789 -1.24844 4
vertex 0 0 4
vertex 0 0 4.33333
endloop
endfacet
facet normal 0.416147 -0.909297 0
outer loop 
vertex 0 0 4.33333
vertex -2.72789 -1.24844 4.33333
vertex -2.72789 -1.24844 4
endloop
endfacet
facet normal 0 -0 -1
outer loop 
vertex -2.24492 3.31064 4.33333
vertex 0 0 4.33333
vertex -2.48298 -1.68369 4.33333
endloop
endfacet
facet normal 0 -0 -1
outer loop 
vertex -2.48298 -1.68369 4.33333
vertex -4.7279 1.62695 4.33333
vertex -2.24492 3.31064 4.33333
endloop
endfacet
facet normal 0 0 1
outer loop 
vertex -2.48298 -1.68369 4.66667
vertex 0 0 4.66667
vertex -2.24492 3.31064 4.66667
endloop
endfacet
facet normal 0 0 1
outer loop 
vertex -2.24492 3.31064 4.66667
vertex -4.7279 1.62695 4.66667
vertex -2.48298 -1.68369 4.66667
endloop
endfacet
facet normal 0.82766 0.561229 0
outer loop 
vertex 0 0 4.66667
vertex 0 0 4.33333
vertex -2.24492 3.31064 4.33333
endloop
endfacet
facet normal 0.82766 0.561229 0
outer loop 
vertex -2.24492 3.31064 4.33333
vertex -2.24492 3.31064 4.66667
vertex 0 0 4.66667
endloop
endfacet
facet normal -0.561229 0.82766 0
outer loop 
vertex -2.24492 3.31064 4.66667
vertex -2.24492 3.31064 4.33333
vertex -4.7279 1.62695 4.33333
endloop
endfacet
facet normal -0.561229 0.82766 0
outer loop 
vertex -4.7279 1.62695 4.33333
vertex -4.7279 1.62695 4.66667
vertex -2.24492 3.31064 4.66667
endloop
endfacet
facet normal -0.82766 -0.561229 -0
outer loop 
vertex -4.7279 1.62695 4.66667
vertex -4.7279 1.62695 4.33333
vertex -2.48298 -1.68369 4.33333
endloop
endfacet
facet normal -0.82766 -0.561229 -0
outer loop 
vertex -2.48298 -1.68369 4.33333
vertex -2.48298 -1.68369 4.66667
vertex -4.7279 1.62695 4.66667
endloop
endfacet
facet normal 0.561229 -0.82766 0
outer loop 
vertex -2.48298 -1.68369 4.33333
vertex 0 0 4.33333
vertex 0 0 4.66667
endloop
endfacet
facet normal 0.561229 -0.82766 0
outer loop 
vertex 0 0 4.66667
vertex -2.48298 -1.68369 4.66667
vertex -2.48298 -1.68369 4.33333
endloop
endfacet
facet normal 0 0 -1
outer loop 
vertex -2.76303 2.89234 4.66667
vertex 0 0 4.66667
vertex -2.16926 -2.07227 4.66667
endloop
endfacet
facet normal 0 0 -1
outer loop 
vertex -2.16926 -2.07227 4.66667
vertex -4.93229 0.820069 4.66667
vertex -2.76303 2.89234 4.66667
endloop
endfacet
facet normal 0 -0 1
outer loop 
vertex -2.16926 -2.07227 5
vertex 0 0 5
vertex -2.76303 2.89234 5
endloop
endfacet
facet normal 0 -0 1
outer loop 
vertex -2.76303 2.89234 5
vertex -4.93229 0.820069 5
vertex -2.16926 -2.07227 5
endloop
endfacet
facet normal 0.723086 0.690758 0
outer loop 
vertex 0 0 5
vertex 0 0 4.66667
vertex -2.76303 2.89234 4.66667
endloop
endfacet
facet normal 0.723086 0.690758 0
outer loop 
vertex -2.76303 2.89234 4.66667
vertex -2.76303 2.89234 5
vertex 0 0 5
endloop
endfacet
facet normal -0.690758 0.723086 0
outer loop 
vertex -2.76303 2.89234 5
vertex -2.76303 2.89234 4.66667
vertex -4.93229 0.820069 4.66667
endloop
endfacet
facet normal -0.690758 0.723086 0
outer loop 
vertex -4.93229 0.820069 4.66667
vertex -4.93229 0.820069 5
vertex -2.76303 2.89234 5
endloop
endfacet
facet normal -0.723086 -0.690758 -0
outer loop 
vertex -4.93229 0.820069 5
vertex -4.93229 0.820069 4.66667
vertex -2.16926 -2.07227 4.66667
endloop
endfacet
facet normal -0.723086 -0.690758 -0
outer loop 
vertex -2.16926 -2.07227 4.66667
vertex -2.16926 -2.07227 5
vertex -4.93229 0.820069 5
endloop
endfacet
facet normal 0.690758 -0.723086 0
outer loop 
vertex -2.16926 -2.07227 4.66667
vertex 0 0 4.66667
vertex 0 0 5
endloop
endfacet
facet normal 0.690758 -0.723086 0
outer loop 
vertex 0 0 5
vertex -2.16926 -2.07227 5
vertex -2.16926 -2.07227 4.66667
endloop
endfacet
facet normal 0 0 -1
outer loop 
vertex -3.20457 2.39389 5
vertex 0 0 5
vertex -1.79542 -2.40343 5
endloop
endfacet
facet normal 0 0 -1
outer loop 
vertex -1.79542 -2.40343 5
vertex -4.99999 -0.00954194 5
vertex -3.20457 2.39389 5
endloop
endfacet
facet normal 0 -0 1
outer loop 
vertex -1.79542 -2.40343 5.33333
vertex 0 0 5.33333
vertex -3.20457 2.39389 5.33333
endloop
endfacet
facet normal 0 -0 1
outer loop 
vertex -3.20457 2.39389 5.33333
vertex -4.99999 -0.00954194 5.33333
vertex -1.79542 -2.40343 5.33333
endloop
endfacet
facet normal 0.598472 0.801144 0
outer loop 
vertex 0 0 5.33333
vertex 0 0 5
vertex -3.20457 2.39389 5
endloop
endfacet
facet normal 0.598472 0.801144 0
outer loop 
vertex -3.20457 2.39389 5
vertex -3.20457 2.39389 5.33333
vertex 0 0 5.33333
endloop
endfacet
facet normal -0.801144 0.598472 0
outer loop 
vertex -3.20457 2.39389 5.33333
vertex -3.20457 2.39389 5
vertex -4.99999 -0.00954194 5
endloop
endfacet
facet normal -0.801144 0.598472 0
outer loop 
vertex -4.99999 -0.00954194 5
vertex -4.99999 -0.00954194 5.33333
vertex -3.20457 2.39389 5.33333
endloop
endfacet
facet normal -0.598472 -0.801144 -0
outer loop 
vertex -4.99999 -0.00954194 5.33333
vertex -4.99999 -0.00954194 5
vertex -1.79542 -2.40343 5
endloop
endfacet
facet normal -0.598472 -0.801144 -0
outer loop 
vertex -1.79542 -2.40343 5
vertex -1.79542 -2.40343 5.33333
vertex -4.99999 -0.00954194 5.33333
endloop
endfacet
facet normal 0.801144 -0.598472 0
outer loop 
vertex -1.79542 -2.40343 5
vertex 0 0 5
vertex 0 0 5.33333
endloop
endfacet
facet normal 0.801144 -0.598472 0
outer loop 
vertex 0 0 5.33333
vertex -1.79542 -2.40343 5.33333
vertex -1.79542 -2.40343 5
endloop
endfacet
facet normal 0 0 -1
outer loop 
vertex -3.55731 1.82909 5.33333
vertex 0 0 5.33333
vertex -1.37182 -2.66798 5.33333
endloop
endfacet
facet normal 0 0 -1
outer loop 
vertex -1.37182 -2.66798 5.33333
vertex -4.92912 -0.838889 5.33333
vertex -3.55731 1.82909 5.33333
endloop
endfacet
facet normal 0 -0 1
outer loop 
vertex -1.37182 -2.66798 5.66667
vertex 0 0 5.66667
vertex -3.55731 1.82909 5.66667
endloop
endfacet
facet normal 0 -0 1
outer loop 
vertex -3.55731 1.82909 5.66667
vertex -4.92912 -0.838889 5.66667
vertex -1.37182 -2.66798 5.66667
endloop
endfacet
facet normal 0.457273 0.889327 0
outer loop 
vertex 0 0 5.66667
vertex 0 0 5.33333
vertex -3.55731 1.82909 5.33333
endloop
endfacet
facet normal 0.457273 0.889327 0
outer loop 
vertex -3.55731 1.82909 5.33333
vertex -3.55731 1.82909 5.66667
vertex 0 0 5.66667
endloop
endfacet
facet normal -0.889327 0.457273 0
outer loop 
vertex -3.55731 1.82909 5.66667
vertex -3.55731 1.82909 5.33333
vertex -4.92912 -0.838889 5.33333
endloop
endfacet
facet normal -0.889327 0.457273 0
outer loop 
vertex -4.92912 -0.838889 5.33333
vertex -4.92912 -0.838889 5.66667
vertex -3.55731 1.82909 5.66667
endloop
endfacet
facet normal -0.457273 -0.889327 -0
outer loop 
vertex -4.92912 -0.838889 5.66667
vertex -4.92912 -0.838889 5.33333
vertex -1.37182 -2.66798 5.33333
endloop
endfacet
facet normal -0.457273 -0.889327 -0
outer loop 
vertex -1.37182 -2.66798 5.33333
vertex -1.37182 -2.66798 5.66667
vertex -4.92912 -0.838889 5.66667
endloop
endfacet
facet normal 0.889327 -0.457273 0
outer loop 
vertex -1.37182 -2.66798 5.33333
vertex 0 0 5.33333
vertex 0 0 5.66667
endloop
endfacet
facet normal 0.889327 -0.457273 0
outer loop 
vertex 0 0 5.66667
vertex -1.37182 -2.66798 5.66667
vertex -1.37182 -2.66798 5.33333
endloop
endfacet
facet normal 0 0 -1
outer loop 
vertex -3.81145 1.2136 5.66667
vertex 0 0 5.66667
vertex -0.910201 -2.85859 5.66667
endloop
endfacet
facet normal 0 0 -1
outer loop 
vertex -0.910201 -2.85859 5.66667
vertex -4.72165 -1.64499 5.66667
vertex -3.81145 1.2136 5.66667
endloop
endfacet
facet normal 0 -0 1
outer loop 
vertex -0.910201 -2.85859 6
vertex 0 0 6
vertex -3.81145 1.2136 6
endloop
endfacet
facet normal 0 -0 1
outer loop 
vertex -3.81145 1.2136 6
vertex -4.72165 -1.64499 6
vertex -0.910201 -2.85859 6
endloop
endfacet
facet normal 0.3034 0.952863 0
outer loop 
vertex 0 0 6
vertex 0 0 5.66667
vertex -3.81145 1.2136 5.66667
endloop
endfacet
facet normal 0.3034 0.952863 0
outer loop 
vertex -3.81145 1.2136 5.66667
vertex -3.81145 1.2136 6
vertex 0 0 6
endloop
endfacet
facet normal -0.952863 0.3034 0
outer loop 
vertex -3.81145 1.2136 6
vertex -3.81145 1.2136 5.66667
vertex -4.72165 -1.64499 5.66667
endloop
endfacet
facet normal -0.952863 0.3034 0
outer loop 
vertex -4.72165 -1.64499 5.66667
vertex -4.72165 -1.64499 6
vertex -3.81145 1.2136 6
endloop
endfacet
facet normal -0.3034 -0.952863 -0
outer loop 
vertex -4.72165 -1.64499 6
vertex -4.72165 -1.64499 5.66667
vertex -0.910201 -2.85859 5.66667
endloop
endfacet
facet normal -0.3034 -0.952863 -0
outer loop 
vertex -0.910201 -2.85859 5.66667
vertex -0.910201 -2.85859 6
vertex -4.72165 -1.64499 6
endloop
endfacet
facet normal 0.952863 -0.3034 0
outer loop 
vertex -0.910201 -2.85859 5.66667
vertex 0 0 5.66667
vertex 0 0 6
endloop
endfacet
facet normal 0.952863 -0.3034 0
outer loop 
vertex 0 0 6
vertex -0.910201 -2.85859 6
vertex -0.910201 -2.85859 5.66667
endloop
endfacet
facet normal 0 0 -1
outer loop 
vertex -3.95997 0.56448 6
vertex 0 0 6
vertex -0.42336 -2.96998 6
endloop
endfacet
facet normal 0 0 -1
outer loop 
vertex -0.42336 -2.96998 6
vertex -4.38333 -2.4055 6
vertex -3.95997 0.56448 6
endloop
endfacet
facet normal 0 -0 1
outer loop 
vertex -0.42336 -2.96998 6.33333
vertex 0 0 6.33333
vertex -3.95997 0.56448 6.33333
endloop
endfacet
facet normal 0 -0 1
outer loop 
vertex -3.95997 0.56448 6.33333
vertex -4.38333 -2.4055 6.33333
vertex -0.42336 -2.96998 6.33333
endloop
endfacet
facet normal 0.14112 0.989992 0
outer loop 
vertex 0 0 6.33333
vertex 0 0 6
vertex -3.95997 0.56448 6
endloop
endfacet
facet normal 0.14112 0.989992 0
outer loop 
vertex -3.95997 0.56448 6
vertex -3.95997 0.56448 6.33333
vertex 0 0 6.33333
endloop
endfacet
facet normal -0.989992 0.14112 0
outer loop 
vertex -3.95997 0.56448 6.33333
vertex -3.95997 0.56448 6
vertex -4.38333 -2.4055 6
endloop
endfacet
facet normal -0.989992 0.14112 0
outer loop 
vertex -4.38333 -2.4055 6
vertex -4.38333 -2.4055 6.33333
vertex -3.95997 0.56448 6.33333
endloop
endfacet
facet normal -0.14112 -0.989992 -0
outer loop 
vertex -4.38333 -2.4055 6.33333
vertex -4.38333 -2.4055 6
vertex -0.42336 -2.96998 6
endloop
endfacet
facet normal -0.14112 -0.989992 -0
outer loop 
vertex -0.42336 -2.96998 6
vertex -0.42336 -2.96998 6.33333
vertex -4.38333 -2.4055 6.33333
endloop
endfacet
facet normal 0.989992 -0.14112 0
outer loop 
vertex -0.42336 -2.96998 6
vertex 0 0 6
vertex 0 0 6.33333
endloop
endfacet
facet normal 0.989992 -0.14112 0
outer loop 
vertex 0 0 6.33333
vertex -0.42336 -2.96998 6.33333
vertex -0.42336 -2.96998 6
endloop
endfacet
facet normal 0 0 -1
outer loop 
vertex -3.99874 -0.100286 6.33333
vertex 0 0 6.33333
vertex 0.0752144 -2.99906 6.33333
endloop
endfacet
facet normal 0 0 -1
outer loop 
vertex 0.0752144 -2.99906 6.33333
vertex -3.92353 -3.09934 6.33333
vertex -3.99874 -0.100286 6.33333
endloop
endfacet
facet normal 0 0 1
outer loop 
vertex 0.0752144 -2.99906 6.66667
vertex 0 0 6.66667
vertex -3.99874 -0.100286 6.66667
endloop
endfacet
facet normal 0 0 1
outer loop 
vertex -3.99874 -0.100286 6.66667
vertex -3.92353 -3.09934 6.66667
vertex 0.0752144 -2.99906 6.66667
endloop
endfacet
facet normal -0.0250715 0.999686 0
outer loop 
vertex 0 0 6.66667
vertex 0 0 6.33333
vertex -3.99874 -0.100286 6.33333
endloop
endfacet
facet normal -0.0250715 0.999686 0
outer loop 
vertex -3.99874 -0.100286 6.33333
vertex -3.99874 -0.100286 6.66667
vertex 0 0 6.66667
endloop
endfacet
facet normal -0.999686 -0.0250714 -0
outer loop 
vertex -3.99874 -0.100286 6.66667
vertex -3.99874 -0.100286 6.33333
vertex -3.92353 -3.09934 6.33333
endloop
endfacet
facet normal -0.999686 -0.0250714 -0
outer loop 
vertex -3.92353 -3.09934 6.33333
vertex -3.92353 -3.09934 6.66667
vertex -3.99874 -0.100286 6.66667
endloop
endfacet
facet normal 0.0250714 -0.999686 0
outer loop 
vertex -3.92353 -3.09934 6.66667
vertex -3.92353 -3.09934 6.33333
vertex 0.0752144 -2.99906 6.33333
endloop
endfacet
facet normal 0.0250714 -0.999686 0
outer loop 
vertex 0.0752144 -2.99906 6.33333
vertex 0.0752144 -2.99906 6.66667
vertex -3.92353 -3.09934 6.66667
endloop
endfacet
facet normal 0.999686 0.0250715 0
outer loop 
vertex 0.0752144 -2.99906 6.33333
vertex 0 0 6.33333
vertex 0 0 6.66667
endloop
endfacet
facet normal 0.999686 0.0250715 0
outer loop 
vertex 0 0 6.66667
vertex 0.0752144 -2.99906 6.66667
vertex 0.0752144 -2.99906 6.33333
endloop
endfacet
facet normal 0 0 -1
outer loop 
vertex -3.9267 -0.762272 6.66667
vertex 0 0 6.66667
vertex 0.571704 -2.94502 6.66667
endloop
endfacet
facet normal 0 0 -1
outer loop 
vertex 0.571704 -2.94502 6.66667
vertex -3.35499 -3.70729 6.66667
vertex -3.9267 -0.762272 6.66667
endloop
endfacet
facet normal 0 0 1
outer loop 
vertex 0.571704 -2.94502 7
vertex 0 0 7
vertex -3.9267 -0.762272 7
endloop
endfacet
facet normal 0 0 1
outer loop 
vertex -3.9267 -0.762272 7
vertex -3.35499 -3.70729 7
vertex 0.571704 -2.94502 7
endloop
endfacet
facet normal -0.190568 0.981674 0
outer loop 
vertex 0 0 7
vertex 0 0 6.66667
vertex -3.9267 -0.762272 6.66667
endloop
endfacet
facet normal -0.190568 0.981674 0
outer loop 
vertex -3.9267 -0.762272 6.66667
vertex -3.9267 -0.762272 7
vertex 0 0 7
endloop
endfacet
facet normal -0.981674 -0.190568 -0
outer loop 
vertex -3.9267 -0.762272 7
vertex -3.9267 -0.762272 6.66667
vertex -3.35499 -3.70729 6.66667
endloop
endfacet
facet normal -0.981674 -0.190568 -0
outer loop 
vertex -3.35499 -3.70729 6.66667
vertex -3.35499 -3.70729 7
vertex -3.9267 -0.762272 7
endloop
endfacet
facet normal 0.190568 -0.981674 0
outer loop 
vertex -3.35499 -3.70729 7
vertex -3.35499 -3.70729 6.66667
vertex 0.571704 -2.94502 6.66667
endloop
endfacet
facet normal 0.190568 -0.981674 0
outer loop 
vertex 0.571704 -2.94502 6.66667
vertex 0.571704 -2.94502 7
vertex -3.35499 -3.70729 7
endloop
endfacet
facet normal 0.981674 0.190568 0
outer loop 
vertex 0.571704 -2.94502 6.66667
vertex 0 0 6.66667
vertex 0 0 7
endloop
endfacet
facet normal 0.981674 0.190568 0
outer loop 
vertex 0 0 7
vertex 0.571704 -2.94502 7
vertex 0.571704 -2.94502 6.66667
endloop
endfacet
facet normal 0 0 -1
outer loop 
vertex -3.74583 -1.40313 7
vertex 0 0 7
vertex 1.05235 -2.80937 7
endloop
endfacet
facet normal 0 0 -1
outer loop 
vertex 1.05235 -2.80937 7
vertex -2.69348 -4.2125 7
vertex -3.74583 -1.40313 7
endloop
endfacet
facet normal 0 0 1
outer loop 
vertex 1.05235 -2.80937 7.33333
vertex 0 0 7.33333
vertex -3.74583 -1.40313 7.33333
endloop
endfacet
facet normal 0 0 1
outer loop 
vertex -3.74583 -1.40313 7.33333
vertex -2.69348 -4.2125 7.33333
vertex 1.05235 -2.80937 7.33333
endloop
endfacet
facet normal -0.350783 0.936457 0
outer loop 
vertex 0 0 7.33333
vertex 0 0 7
vertex -3.74583 -1.40313 7
endloop
endfacet
facet normal -0.350783 0.936457 0
outer loop 
vertex -3.74583 -1.40313 7
vertex -3.74583 -1.40313 7.33333
vertex 0 0 7.33333
endloop
endfacet
facet normal -0.936457 -0.350783 -0
outer loop 
vertex -3.74583 -1.40313 7.33333
vertex -3.74583 -1.40313 7
vertex -2.69348 -4.2125 7
endloop
endfacet
facet normal -0.936457 -0.350783 -0
outer loop 
vertex -2.69348 -4.2125 7
vertex -2.69348 -4.2125 7.33333
vertex -3.74583 -1.40313 7.33333
endloop
endfacet
facet normal 0.350783 -0.936457 0
outer loop 
vertex -2.69348 -4.2125 7.33333
vertex -2.69348 -4.2125 7
vertex 1.05235 -2.80937 7
endloop
endfacet
facet normal 0.350783 -0.936457 0
outer loop 
vertex 1.05235 -2.80937 7
vertex 1.05235 -2.80937 7.33333
vertex -2.69348 -4.2125 7.33333
endloop
endfacet
facet normal 0.936457 0.350783 0
outer loop 
vertex 1.05235 -2.80937 7
vertex 0 0 7
vertex 0 0 7.33333
endloop
endfacet
facet normal 0.936457 0.350783 0
outer loop 
vertex 0 0 7.33333
vertex 1.05235 -2.80937 7.33333
vertex 1.05235 -2.80937 7
endloop
endfacet
facet normal 0 0 -1
outer loop 
vertex -3.46115 -2.00511 7.33333
vertex 0 0 7.33333
vertex 1.50383 -2.59586 7.33333
endloop
endfacet
facet normal 0 0 -1
outer loop 
vertex 1.50383 -2.59586 7.33333
vertex -1.95732 -4.60097 7.33333
vertex -3.46115 -2.00511 7.33333
endloop
endfacet
facet normal 0 0 1
outer loop 
vertex 1.50383 -2.59586 7.66667
vertex 0 0 7.66667
vertex -3.46115 -2.00511 7.66667
endloop
endfacet
facet normal 0 0 1
outer loop 
vertex -3.46115 -2.00511 7.66667
vertex -1.95732 -4.60097 7.66667
vertex 1.50383 -2.59586 7.66667
endloop
endfacet
facet normal -0.501277 0.865287 0
outer loop 
vertex 0 0 7.66667
vertex 0 0 7.33333
vertex -3.46115 -2.00511 7.33333
endloop
endfacet
facet normal -0.501277 0.865287 0
outer loop 
vertex -3.46115 -2.00511 7.33333
vertex -3.46115 -2.00511 7.66667
vertex 0 0 7.66667
endloop
endfacet
facet normal -0.865287 -0.501277 -0
outer loop 
vertex -3.46115 -2.00511 7.66667
vertex -3.46115 -2.00511 7.33333
vertex -1.95732 -4.60097 7.33333
endloop
endfacet
facet normal -0.865287 -0.501277 -0
outer loop 
vertex -1.95732 -4.60097 7.33333
vertex -1.95732 -4.60097 7.66667
vertex -3.46115 -2.00511 7.66667
endloop
endfacet
facet normal 0.501277 -0.865287 0
outer loop 
vertex -1.95732 -4.60097 7.66667
vertex -1.95732 -4.60097 7.33333
vertex 1.50383 -2.59586 7.33333
endloop
endfacet
facet normal 0.501277 -0.865287 0
outer loop 
vertex 1.50383 -2.59586 7.33333
vertex 1.50383 -2.59586 7.66667
vertex -1.95732 -4.60097 7.66667
endloop
endfacet
facet normal 0.865287 0.501277 0
outer loop 
vertex 1.50383 -2.59586 7.33333
vertex 0 0 7.33333
vertex 0 0 7.66667
endloop
endfacet
facet normal 0.865287 0.501277 0
outer loop 
vertex 0 0 7.66667
vertex 1.50383 -2.59586 7.66667
vertex 1.50383 -2.59586 7.33333
endloop
endfacet
facet normal 0 0 -1
outer loop 
vertex -3.08055 -2.55152 7.66667
vertex 0 0 7.66667
vertex 1.91364 -2.31041 7.66667
endloop
endfacet
facet normal 0 0 -1
outer loop 
vertex 1.91364 -2.31041 7.66667
vertex -1.16691 -4.86193 7.66667
vertex -3.08055 -2.55152 7.66667
endloop
endfacet
facet normal 0 0 1
outer loop 
vertex 1.91364 -2.31041 8
vertex 0 0 8
vertex -3.08055 -2.55152 8
endloop
endfacet
facet normal 0 0 1
outer loop 
vertex -3.08055 -2.55152 8
vertex -1.16691 -4.86193 8
vertex 1.91364 -2.31041 8
endloop
endfacet
facet normal -0.637879 0.770137 0
outer loop 
vertex 0 0 8
vertex 0 0 7.66667
vertex -3.08055 -2.55152 7.66667
endloop
endfacet
facet normal -0.637879 0.770137 0
outer loop 
vertex -3.08055 -2.55152 7.66667
vertex -3.08055 -2.55152 8
vertex 0 0 8
endloop
endfacet
facet normal -0.770137 -0.637879 -0
outer loop 
vertex -3.08055 -2.55152 8
vertex -3.08055 -2.55152 7.66667
vertex -1.16691 -4.86193 7.66667
endloop
endfacet
facet normal -0.770137 -0.637879 -0
outer loop 
vertex -1.16691 -4.86193 7.66667
vertex -1.16691 -4.86193 8
vertex -3.08055 -2.55152 8
endloop
endfacet
facet normal 0.637879 -0.770137 0
outer loop 
vertex -1.16691 -4.86193 8
vertex -1.16691 -4.86193 7.66667
vertex 1.91364 -2.31041 7.66667
endloop
endfacet
facet normal 0.637879 -0.770137 0
outer loop 
vertex 1.91364 -2.31041 7.66667
vertex 1.91364 -2.31041 8
vertex -1.16691 -4.86193 8
endloop
endfacet
facet normal 0.770137 0.637879 0
outer loop 
vertex 1.91364 -2.31041 7.66667
vertex 0 0 7.66667
vertex 0 0 8
endloop
endfacet
facet normal 0.770137 0.637879 0
outer loop 
vertex 0 0 8
vertex 1.91364 -2.31041 8
vertex 1.91364 -2.31041 7.66667
endloop
endfacet
facet normal 0 0 -1
outer loop 
vertex -2.61457 -3.02721 8
vertex 0 0 8
vertex 2.27041 -1.96093 8
endloop
endfacet
facet normal 0 0 -1
outer loop 
vertex 2.27041 -1.96093 8
vertex -0.344166 -4.98814 8
vertex -2.61457 -3.02721 8
endloop
endfacet
facet normal 0 0 1
outer loop 
vertex 2.27041 -1.96093 8.33333
vertex 0 0 8.33333
vertex -2.61457 -3.02721 8.33333
endloop
endfacet
facet normal 0 0 1
outer loop 
vertex -2.61457 -3.02721 8.33333
vertex -0.344166 -4.98814 8.33333
vertex 2.27041 -1.96093 8.33333
endloop
endfacet
facet normal -0.756802 0.653644 0
outer loop 
vertex 0 0 8.33333
vertex 0 0 8
vertex -2.61457 -3.02721 8
endloop
endfacet
facet normal -0.756802 0.653644 0
outer loop 
vertex -2.61457 -3.02721 8
vertex -2.61457 -3.02721 8.33333
vertex 0 0 8.33333
endloop
endfacet
facet normal -0.653643 -0.756803 -0
outer loop 
vertex -2.61457 -3.02721 8.33333
vertex -2.61457 -3.02721 8
vertex -0.344166 -4.98814 8
endloop
endfacet
facet normal -0.653643 -0.756803 -0
outer loop 
vertex -0.344166 -4.98814 8
vertex -0.344166 -4.98814 8.33333
vertex -2.61457 -3.02721 8.33333
endloop
endfacet
facet normal 0.756803 -0.653643 0
outer loop 
vertex -0.344166 -4.98814 8.33333
vertex -0.344166 -4.98814 8
vertex 2.27041 -1.96093 8
endloop
endfacet
facet normal 0.756803 -0.653643 0
outer loop 
vertex 2.27041 -1.96093 8
vertex 2.27041 -1.96093 8.33333
vertex -0.344166 -4.98814 8.33333
endloop
endfacet
facet normal 0.653644 0.756802 0
outer loop 
vertex 2.27041 -1.96093 8
vertex 0 0 8
vertex 0 0 8.33333
endloop
endfacet
facet normal 0.653644 0.756802 0
outer loop 
vertex 0 0 8.33333
vertex 2.27041 -1.96093 8.33333
vertex 2.27041 -1.96093 8
endloop
endfacet
facet normal 0 0 -1
outer loop 
vertex -2.07614 -3.41901 8.33333
vertex 0 0 8.33333
vertex 2.56426 -1.55711 8.33333
endloop
endfacet
facet normal 0 0 -1
outer loop 
vertex 2.56426 -1.55711 8.33333
vertex 0.488118 -4.97612 8.33333
vertex -2.07614 -3.41901 8.33333
endloop
endfacet
facet normal 0 0 1
outer loop 
vertex 2.56426 -1.55711 8.66667
vertex 0 0 8.66667
vertex -2.07614 -3.41901 8.66667
endloop
endfacet
facet normal 0 0 1
outer loop 
vertex -2.07614 -3.41901 8.66667
vertex 0.488118 -4.97612 8.66667
vertex 2.56426 -1.55711 8.66667
endloop
endfacet
facet normal -0.854753 0.519035 0
outer loop 
vertex 0 0 8.66667
vertex 0 0 8.33333
vertex -2.07614 -3.41901 8.33333
endloop
endfacet
facet normal -0.854753 0.519035 0
outer loop 
vertex -2.07614 -3.41901 8.33333
vertex -2.07614 -3.41901 8.66667
vertex 0 0 8.66667
endloop
endfacet
facet normal -0.519035 -0.854753 -0
outer loop 
vertex -2.07614 -3.41901 8.66667
vertex -2.07614 -3.41901 8.33333
vertex 0.488118 -4.97612 8.33333
endloop
endfacet
facet normal -0.519035 -0.854753 -0
outer loop 
vertex 0.488118 -4.97612 8.33333
vertex 0.488118 -4.97612 8.66667
vertex -2.07614 -3.41901 8.66667
endloop
endfacet
facet normal 0.854753 -0.519035 0
outer loop 
vertex 0.488118 -4.97612 8.66667
vertex 0.488118 -4.97612 8.33333
vertex 2.56426 -1.55711 8.33333
endloop
endfacet
facet normal 0.854753 -0.519035 0
outer loop 
vertex 2.56426 -1.55711 8.33333
vertex 2.56426 -1.55711 8.66667
vertex 0.488118 -4.97612 8.66667
endloop
endfacet
facet normal 0.519035 0.854753 0
outer loop 
vertex 2.56426 -1.55711 8.33333
vertex 0 0 8.33333
vertex 0 0 8.66667
endloop
endfacet
facet normal 0.519035 0.854753 0
outer loop 
vertex 0 0 8.66667
vertex 2.56426 -1.55711 8.66667
vertex 2.56426 -1.55711 8.33333
endloop
endfacet
facet normal 0 0 -1
outer loop 
vertex -1.48017 -3.71606 8.66667
vertex 0 0 8.66667
vertex 2.78704 -1.11013 8.66667
endloop
endfacet
facet normal 0 0 -1
outer loop 
vertex 2.78704 -1.11013 8.66667
vertex 1.30687 -4.82619 8.66667
vertex -1.48017 -3.71606 8.66667
endloop
endfacet
facet normal 0 0 1
outer loop 
vertex 2.78704 -1.11013 9
vertex 0 0 9
vertex -1.48017 -3.71606 9
endloop
endfacet
facet normal 0 0 1
outer loop 
vertex -1.48017 -3.71606 9
vertex 1.30687 -4.82619 9
vertex 2.78704 -1.11013 9
endloop
endfacet
facet normal -0.929015 0.370043 0
outer loop 
vertex 0 0 9
vertex 0 0 8.66667
vertex -1.48017 -3.71606 8.66667
endloop
endfacet
facet normal -0.929015 0.370043 0
outer loop 
vertex -1.48017 -3.71606 8.66667
vertex -1.48017 -3.71606 9
vertex 0 0 9
endloop
endfacet
facet normal -0.370043 -0.929015 -0
outer loop 
vertex -1.48017 -3.71606 9
vertex -1.48017 -3.71606 8.66667
vertex 1.30687 -4.82619 8.66667
endloop
endfacet
facet normal -0.370043 -0.929015 -0
outer loop 
vertex 1.30687 -4.82619 8.66667
vertex 1.30687 -4.82619 9
vertex -1.48017 -3.71606 9
endloop
endfacet
facet normal 0.929015 -0.370043 0
outer loop 
vertex 1.30687 -4.82619 9
vertex 1.30687 -4.82619 8.66667
vertex 2.78704 -1.11013 8.66667
endloop
endfacet
facet normal 0.929015 -0.370043 0
outer loop 
vertex 2.78704 -1.11013 8.66667
vertex 2.78704 -1.11013 9
vertex 1.30687 -4.82619 9
endloop
endfacet
facet normal 0.370043 0.929015 0
outer loop 
vertex 2.78704 -1.11013 8.66667
vertex 0 0 8.66667
vertex 0 0 9
endloop
endfacet
facet normal 0.370043 0.929015 0
outer loop 
vertex 0 0 9
vertex 2.78704 -1.11013 9
vertex 2.78704 -1.11013 8.66667
endloop
endfacet
facet normal 0 0 -1
outer loop 
vertex -0.843183 -3.91012 9
vertex 0 0 9
vertex 2.93259 -0.632387 9
endloop
endfacet
facet normal 0 0 -1
outer loop 
vertex 2.93259 -0.632387 9
vertex 2.08941 -4.54251 9
vertex -0.843183 -3.91012 9
endloop
endfacet
facet normal 0 0 1
outer loop 
vertex 2.93259 -0.632387 9.33333
vertex 0 0 9.33333
vertex -0.843183 -3.91012 9.33333
endloop
endfacet
facet normal 0 0 1
outer loop 
vertex -0.843183 -3.91012 9.33333
vertex 2.08941 -4.54251 9.33333
vertex 2.93259 -0.632387 9.33333
endloop
endfacet
facet normal -0.97753 0.210796 0
outer loop 
vertex 0 0 9.33333
vertex 0 0 9
vertex -0.843183 -3.91012 9
endloop
endfacet
facet normal -0.97753 0.210796 0
outer loop 
vertex -0.843183 -3.91012 9
vertex -0.843183 -3.91012 9.33333
vertex 0 0 9.33333
endloop
endfacet
facet normal -0.210796 -0.97753 -0
outer loop 
vertex -0.843183 -3.91012 9.33333
vertex -0.843183 -3.91012 9
vertex 2.08941 -4.54251 9
endloop
endfacet
facet normal -0.210796 -0.97753 -0
outer loop 
vertex 2.08941 -4.54251 9
vertex 2.08941 -4.54251 9.33333
vertex -0.843183 -3.91012 9.33333
endloop
endfacet
facet normal 0.97753 -0.210796 0
outer loop 
vertex 2.08941 -4.54251 9.33333
vertex 2.08941 -4.54251 9
vertex 2.93259 -0.632387 9
endloop
endfacet
facet normal 0.97753 -0.210796 0
outer loop 
vertex 2.93259 -0.632387 9
vertex 2.93259 -0.632387 9.33333
vertex 2.08941 -4.54251 9.33333
endloop
endfacet
facet normal 0.210796 0.97753 0
outer loop 
vertex 2.93259 -0.632387 9
vertex 0 0 9
vertex 0 0 9.33333
endloop
endfacet
facet normal 0.210796 0.97753 0
outer loop 
vertex 0 0 9.33333
vertex 2.93259 -0.632387 9.33333
vertex 2.93259 -0.632387 9
endloop
endfacet
facet normal 0 0 -1
outer loop 
vertex -0.182824 -3.99582 9.33333
vertex 0 0 9.33333
vertex 2.99686 -0.137118 9.33333
endloop
endfacet
facet normal 0 0 -1
outer loop 
vertex 2.99686 -0.137118 9.33333
vertex 2.81404 -4.13294 9.33333
vertex -0.182824 -3.99582 9.33333
endloop
endfacet
facet normal 0 0 1
outer loop 
vertex 2.99686 -0.137118 9.66667
vertex 0 0 9.66667
vertex -0.182824 -3.99582 9.66667
endloop
endfacet
facet normal 0 0 1
outer loop 
vertex -0.182824 -3.99582 9.66667
vertex 2.81404 -4.13294 9.66667
vertex 2.99686 -0.137118 9.66667
endloop
endfacet
facet normal -0.998955 0.0457061 0
outer loop 
vertex 0 0 9.66667
vertex 0 0 9.33333
vertex -0.182824 -3.99582 9.33333
endloop
endfacet
facet normal -0.998955 0.0457061 0
outer loop 
vertex -0.182824 -3.99582 9.33333
vertex -0.182824 -3.99582 9.66667
vertex 0 0 9.66667
endloop
endfacet
facet normal -0.0457059 -0.998955 -0
outer loop 
vertex -0.182824 -3.99582 9.66667
vertex -0.182824 -3.99582 9.33333
vertex 2.81404 -4.13294 9.33333
endloop
endfacet
facet normal -0.0457059 -0.998955 -0
outer loop 
vertex 2.81404 -4.13294 9.33333
vertex 2.81404 -4.13294 9.66667
vertex -0.182824 -3.99582 9.66667
endloop
endfacet
facet normal 0.998955 -0.0457059 0
outer loop 
vertex 2.81404 -4.13294 9.66667
vertex 2.81404 -4.13294 9.33333
vertex 2.99686 -0.137118 9.33333
endloop
endfacet
facet normal 0.998955 -0.0457059 0
outer loop 
vertex 2.99686 -0.137118 9.33333
vertex 2.99686 -0.137118 9.66667
vertex 2.81404 -4.13294 9.66667
endloop
endfacet
facet normal 0.0457061 0.998955 0
outer loop 
vertex 2.99686 -0.137118 9.33333
vertex 0 0 9.33333
vertex 0 0 9.66667
endloop
endfacet
facet normal 0.0457061 0.998955 0
outer loop 
vertex 0 0 9.66667
vertex 2.99686 -0.137118 9.66667
vertex 2.99686 -0.137118 9.33333
endloop
endfacet
facet normal 0 0 -1
outer loop 
vertex 0.482599 -3.97078 9.66667
vertex 0 0 9.66667
vertex 2.97809 0.36195 9.66667
endloop
endfacet
facet normal 0 0 -1
outer loop 
vertex 2.97809 0.36195 9.66667
vertex 3.46069 -3.60883 9.66667
vertex 0.482599 -3.97078 9.66667
endloop
endfacet
facet normal 0 0 1
outer loop 
vertex 2.97809 0.36195 10
vertex 0 0 10
vertex 0.482599 -3.97078 10
endloop
endfacet
facet normal 0 0 1
outer loop 
vertex 0.482599 -3.97078 10
vertex 3.46069 -3.60883 10
vertex 2.97809 0.36195 10
endloop
endfacet
facet normal -0.992695 -0.12065 -0
outer loop 
vertex 0 0 10
vertex 0 0 9.66667
vertex 0.482599 -3.97078 9.66667
endloop
endfacet
facet normal -0.992695 -0.12065 -0
outer loop 
vertex 0.482599 -3.97078 9.66667
vertex 0.482599 -3.97078 10
vertex 0 0 10
endloop
endfacet
facet normal 0.12065 -0.992695 0
outer loop 
vertex 0.482599 -3.97078 10
vertex 0.482599 -3.97078 9.66667
vertex 3.46069 -3.60883 9.66667
endloop
endfacet
facet normal 0.12065 -0.992695 0
outer loop 
vertex 3.46069 -3.60883 9.66667
vertex 3.46069 -3.60883 10
vertex 0.482599 -3.97078 10
endloop
endfacet
facet normal 0.992695 0.12065 0
outer loop 
vertex 3.46069 -3.60883 10
vertex 3.46069 -3.60883 9.66667
vertex 2.97809 0.36195 9.66667
endloop
endfacet
facet normal 0.992695 0.12065 0
outer loop 
vertex 2.97809 0.36195 9.66667
vertex 2.97809 0.36195 10
vertex 3.46069 -3.60883 10
endloop
endfacet
facet normal -0.12065 0.992695 0
outer loop 
vertex 2.97809 0.36195 9.66667
vertex 0 0 9.66667
vertex 0 0 10
endloop
endfacet
facet normal -0.12065 0.992695 0
outer loop 
vertex 0 0 10
vertex 2.97809 0.36195 10
vertex 2.97809 0.36195 9.66667
endloop
endfacet
endsolid model
