solid model
facet normal 0 0 -1
outer loop 
vertex 0 7 0
vertex -7 7 0
vertex -7 12 0
endloop
endfacet
facet normal 0 0 -1
outer loop 
vertex -7 12 0
vertex 0 12 0
vertex 0 7 0
endloop
endfacet
facet normal 0 0 1
outer loop 
vertex -7 12 2.5
vertex -7 7 2.5
vertex 0 7 2.5
endloop
endfacet
facet normal 0 0 1
outer loop 
vertex 0 7 2.5
vertex 0 12 2.5
vertex -7 12 2.5
endloop
endfacet
facet normal -1 0 0
outer loop 
vertex -7 12 0
vertex -7 7 0
vertex -7 7 2.5
endloop
endfacet
facet normal -1 0 0
outer loop 
vertex -7 7 2.5
vertex -7 12 2.5
vertex -7 12 0
endloop
endfacet
facet normal 1 0 0
outer loop 
vertex 0 7 2.5
vertex 0 7 0
vertex 0 12 0
endloop
endfacet
facet normal 1 0 0
outer loop 
vertex 0 12 0
vertex 0 12 2.5
vertex 0 7 2.5
endloop
endfacet
facet normal 0 -1 0
outer loop 
vertex -7 7 2.5
vertex -7 7 0
vertex 0 7 0
endloop
endfacet
facet normal 0 -1 0
outer loop 
vertex 0 7 0
vertex 0 7 2.5
vertex -7 7 2.5
endloop
endfacet
facet normal 0 1 0
outer loop 
vertex 0 12 0
vertex -7 12 0
vertex -7 12 2.5
endloop
endfacet
facet normal 0 1 0
outer loop 
vertex -7 12 2.5
vertex 0 12 2.5
vertex 0 12 0
endloop
endfacet
facet normal 0 0 -1
outer loop 
vertex 14 7 0
vertex 7 7 0
vertex 7 12 0
endloop
endfacet
facet normal 0 0 -1
outer loop 
vertex 7 12 0
vertex 14 12 0
vertex 14 7 0
endloop
endfacet
facet normal 0 0 1
outer loop 
vertex 7 12 2.5
vertex 7 7 2.5
vertex 14 7 2.5
endloop
endfacet
facet normal 0 0 1
outer loop 
vertex 14 7 2.5
vertex 14 12 2.5
vertex 7 12 2.5
endloop
endfacet
facet normal -1 0 0
outer loop 
vertex 7 12 0
vertex 7 7 0
vertex 7 7 2.5
endloop
endfacet
facet normal -1 0 0
outer loop 
vertex 7 7 2.5
vertex 7 12 2.5
vertex 7 12 0
endloop
endfacet
facet normal 1 0 0
outer loop 
vertex 14 7 2.5
vertex 14 7 0
vertex 14 12 0
endloop
endfacet
facet normal 1 0 0
outer loop 
vertex 14 12 0
vertex 14 12 2.5
vertex 14 7 2.5
endloop
endfacet
facet normal 0 -1 0
outer loop 
vertex 7 7 2.5
vertex 7 7 0
vertex 14 7 0
endloop
endfacet
facet normal 0 -1 0
outer loop 
vertex 14 7 0
vertex 14 7 2.5
vertex 7 7 2.5
endloop
endfacet
facet normal 0 1 0
outer loop 
vertex 14 12 0
vertex 7 12 0
vertex 7 12 2.5
endloop
endfacet
facet normal 0 1 0
outer loop 
vertex 7 12 2.5
vertex 14 12 2.5
vertex 14 12 0
endloop
endfacet
facet normal 0 0 -1
outer loop 
vertex 14 -7 0
vertex 7 -7 0
vertex 7 -2 0
endloop
endfacet
facet normal 0 0 -1
outer loop 
vertex 7 -2 0
vertex 14 -2 0
vertex 14 -7 0
endloop
endfacet
facet normal 0 0 1
outer loop 
vertex 7 -2 2.5
vertex 7 -7 2.5
vertex 14 -7 2.5
endloop
endfacet
facet normal 0 0 1
outer loop 
vertex 14 -7 2.5
vertex 14 -2 2.5
vertex 7 -2 2.5
endloop
endfacet
facet normal -1 0 0
outer loop 
vertex 7 -2 0
vertex 7 -7 0
vertex 7 -7 2.5
endloop
endfacet
facet normal -1 0 0
outer loop 
vertex 7 -7 2.5
vertex 7 -2 2.5
vertex 7 -2 0
endloop
endfacet
facet normal 1 0 0
outer loop 
vertex 14 -7 2.5
vertex 14 -7 0
vertex 14 -2 0
endloop
endfacet
facet normal 1 0 0
outer loop 
vertex 14 -2 0
vertex 14 -2 2.5
vertex 14 -7 2.5
endloop
endfacet
facet normal 0 -1 0
outer loop 
vertex 7 -7 2.5
vertex 7 -7 0
vertex 14 -7 0
endloop
endfacet
facet normal 0 -1 0
outer loop 
vertex 14 -7 0
vertex 14 -7 2.5
vertex 7 -7 2.5
endloop
endfacet
facet normal 0 1 0
outer loop 
vertex 14 -2 0
vertex 7 -2 0
vertex 7 -2 2.5
endloop
endfacet
facet normal 0 1 0
outer loop 
vertex 7 -2 2.5
vertex 14 -2 2.5
vertex 14 -2 0
endloop
endfacet
facet normal 0 0 -1
outer loop 
vertex 0 -7 0
vertex -7 -7 0
vertex -7 -2 0
endloop
endfacet
facet normal 0 0 -1
outer loop 
vertex -7 -2 0
vertex 0 -2 0
vertex 0 -7 0
endloop
endfacet
facet normal 0 0 1
outer loop 
vertex -7 -2 2.5
vertex -7 -7 2.5
vertex 0 -7 2.5
endloop
endfacet
facet normal 0 0 1
outer loop 
vertex 0 -7 2.5
vertex 0 -2 2.5
vertex -7 -2 2.5
endloop
endfacet
facet normal -1 0 0
outer loop 
vertex -7 -2 0
vertex -7 -7 0
vertex -7 -7 2.5
endloop
endfacet
facet normal -1 0 0
outer loop 
vertex -7 -7 2.5
vertex -7 -2 2.5
vertex -7 -2 0
endloop
endfacet
facet normal 1 0 0
outer loop 
vertex 0 -7 2.5
vertex 0 -7 0
vertex 0 -2 0
endloop
endfacet
facet normal 1 0 0
outer loop 
vertex 0 -2 0
vertex 0 -2 2.5
vertex 0 -7 2.5
endloop
endfacet
facet normal 0 -1 0
outer loop 
vertex -7 -7 2.5
vertex -7 -7 0
vertex 0 -7 0
endloop
endfacet
facet normal 0 -1 0
outer loop 
vertex 0 -7 0
vertex 0 -7 2.5
vertex -7 -7 2.5
endloop
endfacet
facet normal 0 1 0
outer loop 
vertex 0 -2 0
vertex -7 -2 0
vertex -7 -2 2.5
endloop
endfacet
facet normal 0 1 0
outer loop 
vertex -7 -2 2.5
vertex 0 -2 2.5
vertex 0 -2 0
endloop
endfacet
endsolid model
