solid model
facet normal 0 0 -1
outer loop 
vertex 8 -5 -2
vertex 10.1213 -5.87868 -2
vertex 8 -8 -2
endloop
endfacet
facet normal 0 0 -1
outer loop 
vertex 8 -8 -2
vertex 8 -8 -2
vertex 8 -5 -2
endloop
endfacet
facet normal 0 0 1
outer loop 
vertex 10.1213 -5.87868 1
vertex 8 -5 1
vertex 8 -8 1
endloop
endfacet
facet normal 0 0 1
outer loop 
vertex 8 -8 1
vertex 8 -8 1
vertex 10.1213 -5.87868 1
endloop
endfacet
facet normal 0.382683 0.92388 0
outer loop 
vertex 10.1213 -5.87868 -2
vertex 8 -5 -2
vertex 8 -5 1
endloop
endfacet
facet normal 0.382683 0.92388 0
outer loop 
vertex 8 -5 1
vertex 10.1213 -5.87868 1
vertex 10.1213 -5.87868 -2
endloop
endfacet
facet normal 0 -0 -1
outer loop 
vertex 10.1213 -5.87868 -2
vertex 11 -8 -2
vertex 8 -8 -2
endloop
endfacet
facet normal 0 -0 -1
outer loop 
vertex 8 -8 -2
vertex 8 -8 -2
vertex 10.1213 -5.87868 -2
endloop
endfacet
facet normal 0 0 1
outer loop 
vertex 11 -8 1
vertex 10.1213 -5.87868 1
vertex 8 -8 1
endloop
endfacet
facet normal 0 0 1
outer loop 
vertex 8 -8 1
vertex 8 -8 1
vertex 11 -8 1
endloop
endfacet
facet normal 0.92388 0.382683 0
outer loop 
vertex 11 -8 -2
vertex 10.1213 -5.87868 -2
vertex 10.1213 -5.87868 1
endloop
endfacet
facet normal 0.92388 0.382683 0
outer loop 
vertex 10.1213 -5.87868 1
vertex 11 -8 1
vertex 11 -8 -2
endloop
endfacet
facet normal -0 0 -1
outer loop 
vertex 11 -8 -2
vertex 10.1213 -10.1213 -2
vertex 8 -8 -2
endloop
endfacet
facet normal -0 0 -1
outer loop 
vertex 8 -8 -2
vertex 8 -8 -2
vertex 11 -8 -2
endloop
endfacet
facet normal 0 -0 1
outer loop 
vertex 10.1213 -10.1213 1
vertex 11 -8 1
vertex 8 -8 1
endloop
endfacet
facet normal 0 -0 1
outer loop 
vertex 8 -8 1
vertex 8 -8 1
vertex 10.1213 -10.1213 1
endloop
endfacet
facet normal 0.92388 -0.382683 0
outer loop 
vertex 10.1213 -10.1213 -2
vertex 11 -8 -2
vertex 11 -8 1
endloop
endfacet
facet normal 0.92388 -0.382683 0
outer loop 
vertex 11 -8 1
vertex 10.1213 -10.1213 1
vertex 10.1213 -10.1213 -2
endloop
endfacet
facet normal -0 0 -1
outer loop 
vertex 10.1213 -10.1213 -2
vertex 8 -11 -2
vertex 8 -8 -2
endloop
endfacet
facet normal -0 0 -1
outer loop 
vertex 8 -8 -2
vertex 8 -8 -2
vertex 10.1213 -10.1213 -2
endloop
endfacet
facet normal 0 0 1
outer loop 
vertex 8 -11 1
vertex 10.1213 -10.1213 1
vertex 8 -8 1
endloop
endfacet
facet normal 0 0 1
outer loop 
vertex 8 -8 1
vertex 8 -8 1
vertex 8 -11 1
endloop
endfacet
facet normal 0.382683 -0.92388 0
outer loop 
vertex 8 -11 -2
vertex 10.1213 -10.1213 -2
vertex 10.1213 -10.1213 1
endloop
endfacet
facet normal 0.382683 -0.92388 0
outer loop 
vertex 10.1213 -10.1213 1
vertex 8 -11 1
vertex 8 -11 -2
endloop
endfacet
facet normal 0 0 -1
outer loop 
vertex 8 -11 -2
vertex 5.87868 -10.1213 -2
vertex 8 -8 -2
endloop
endfacet
facet normal 0 0 -1
outer loop 
vertex 8 -8 -2
vertex 8 -8 -2
vertex 8 -11 -2
endloop
endfacet
facet normal -0 0 1
outer loop 
vertex 5.87868 -10.1213 1
vertex 8 -11 1
vertex 8 -8 1
endloop
endfacet
facet normal -0 0 1
outer loop 
vertex 8 -8 1
vertex 8 -8 1
vertex 5.87868 -10.1213 1
endloop
endfacet
facet normal -0.382683 -0.92388 0
outer loop 
vertex 5.87868 -10.1213 -2
vertex 8 -11 -2
vertex 8 -11 1
endloop
endfacet
facet normal -0.382683 -0.92388 0
outer loop 
vertex 8 -11 1
vertex 5.87868 -10.1213 1
vertex 5.87868 -10.1213 -2
endloop
endfacet
facet normal 0 0 -1
outer loop 
vertex 5.87868 -10.1213 -2
vertex 5 -8 -2
vertex 8 -8 -2
endloop
endfacet
facet normal 0 0 -1
outer loop 
vertex 8 -8 -2
vertex 8 -8 -2
vertex 5.87868 -10.1213 -2
endloop
endfacet
facet normal -0 0 1
outer loop 
vertex 5 -8 1
vertex 5.87868 -10.1213 1
vertex 8 -8 1
endloop
endfacet
facet normal -0 0 1
outer loop 
vertex 8 -8 1
vertex 8 -8 1
vertex 5 -8 1
endloop
endfacet
facet normal -0.92388 -0.382683 0
outer loop 
vertex 5 -8 -2
vertex 5.87868 -10.1213 -2
vertex 5.87868 -10.1213 1
endloop
endfacet
facet normal -0.92388 -0.382683 0
outer loop 
vertex 5.87868 -10.1213 1
vertex 5 -8 1
vertex 5 -8 -2
endloop
endfacet
facet normal 0 0 -1
outer loop 
vertex 5 -8 -2
vertex 5.87868 -5.87868 -2
vertex 8 -8 -2
endloop
endfacet
facet normal 0 0 -1
outer loop 
vertex 8 -8 -2
vertex 8 -8 -2
vertex 5 -8 -2
endloop
endfacet
facet normal 0 0 1
outer loop 
vertex 5.87868 -5.87868 1
vertex 5 -8 1
vertex 8 -8 1
endloop
endfacet
facet normal 0 0 1
outer loop 
vertex 8 -8 1
vertex 8 -8 1
vertex 5.87868 -5.87868 1
endloop
endfacet
facet normal -0.92388 0.382683 0
outer loop 
vertex 5.87868 -5.87868 -2
vertex 5 -8 -2
vertex 5 -8 1
endloop
endfacet
facet normal -0.92388 0.382683 0
outer loop 
vertex 5 -8 1
vertex 5.87868 -5.87868 1
vertex 5.87868 -5.87868 -2
endloop
endfacet
facet normal 0 0 -1
outer loop 
vertex 5.87868 -5.87868 -2
vertex 8 -5 -2
vertex 8 -8 -2
endloop
endfacet
facet normal 0 0 -1
outer loop 
vertex 8 -8 -2
vertex 8 -8 -2
vertex 5.87868 -5.87868 -2
endloop
endfacet
facet normal 0 0 1
outer loop 
vertex 8 -5 1
vertex 5.87868 -5.87868 1
vertex 8 -8 1
endloop
endfacet
facet normal 0 0 1
outer loop 
vertex 8 -8 1
vertex 8 -8 1
vertex 8 -5 1
endloop
endfacet
facet normal -0.382683 0.92388 0
outer loop 
vertex 8 -5 -2
vertex 5.87868 -5.87868 -2
vertex 5.87868 -5.87868 1
endloop
endfacet
facet normal -0.382683 0.92388 0
outer loop 
vertex 5.87868 -5.87868 1
vertex 8 -5 1
vertex 8 -5 -2
endloop
endfacet
endsolid model
